<?xml version="1.0" encoding="UTF-8" standalone="no"?><svg xmlns="http://www.w3.org/2000/svg" xmlns:xlink="http://www.w3.org/1999/xlink" contentStyleType="text/css" height="432px" preserveAspectRatio="none" style="width:576px;height:432px;background:#f8f9fa;" version="1.1" viewBox="0 0 576 432" width="576px" zoomAndPan="magnify"><defs><style type="text/css"><![CDATA[*{stroke-dasharray:0}]]></style></defs><g id="diagram-classes"><g id="cluster-Ampcode"><path d="M 8,8 L 8,48 L 168,48 L 168,8 Z" fill="none" stroke="#000000" stroke-width="1.5"/><text fill="#000000" font-family="Verdana" font-size="12" font-weight="bold" x="12" y="28">Ampcode</text></g><g id="cluster-MCP_Layer"><path d="M 184,8 L 184,80 L 392,80 L 392,8 Z" fill="none" stroke="#000000" stroke-width="1.5"/><text fill="#000000" font-family="Verdana" font-size="12" font-weight="bold" x="188" y="28">MCP Layer</text></g><g id="cluster-PlantUML"><path d="M 408,8 L 408,80 L 544,80 L 544,8 Z" fill="none" stroke="#000000" stroke-width="1.5"/><text fill="#000000" font-family="Verdana" font-size="12" font-weight="bold" x="412" y="28">PlantUML</text></g><g id="cluster-Output"><path d="M 8,112 L 8,432 L 568,432 L 568,112 Z" fill="none" stroke="#000000" stroke-width="1.5"/><text fill="#000000" font-family="Verdana" font-size="12" font-weight="bold" x="12" y="132">Output</text></g><g id="node-1"><ellipse cx="88" cy="64" rx="71.5" ry="17.5" style="fill:#FFF2CC;stroke:#d6b656;stroke-width:1.5;"/><text fill="#000000" font-family="Verdana" font-size="12" x="51.5" y="69">User Interface</text></g><g id="node-2"><ellipse cx="232" cy="48" rx="59.5" ry="17.5" style="fill:#FFF2CC;stroke:#d6b656;stroke-width:1.5;"/><text fill="#000000" font-family="Verdana" font-size="12" x="182.5" y="53">.amprc.json</text></g><g id="node-3"><ellipse cx="348" cy="48" rx="55" ry="17.5" style="fill:#FFF2CC;stroke:#d6b656;stroke-width:1.5;"/><text fill="#000000" font-family="Verdana" font-size="12" x="305" y="53">MCP Server</text></g><g id="node-4"><ellipse cx="476" cy="48" rx="58.5" ry="17.5" style="fill:#FFF2CC;stroke:#d6b656;stroke-width:1.5;"/><text fill="#000000" font-family="Verdana" font-size="12" x="433.5" y="53">PlantUML Server</text></g><g id="node-5"><ellipse cx="88" cy="176" rx="88" ry="17.5" style="fill:#FFF2CC;stroke:#d6b656;stroke-width:1.5;"/><text fill="#000000" font-family="Verdana" font-size="12" x="30" y="181">Diagram Generator</text></g><g id="node-6"><ellipse cx="232" cy="288" rx="47.5" ry="17.5" style="fill:#FFE6CC;stroke:#d6b656;stroke-width:1.5;"/><text fill="#000000" font-family="Verdana" font-size="12" x="200" y="293">SVG Format</text></g><g id="node-7"><ellipse cx="348" cy="288" rx="47.5" ry="17.5" style="fill:#FFE6CC;stroke:#d6b656;stroke-width:1.5;"/><text fill="#000000" font-family="Verdana" font-size="12" x="316" y="293">PNG Format</text></g><g id="node-8"><ellipse cx="476" cy="288" rx="47.5" ry="17.5" style="fill:#FFE6CC;stroke:#d6b656;stroke-width:1.5;"/><text fill="#000000" font-family="Verdana" font-size="12" x="444" y="293">PDF Format</text></g><path d="M 88,81.5 L 88,100 L 88,100 L 88,158.5" fill="none" stroke="#595959" stroke-width="1.5"/><path d="M 108,166 L 136,166 L 136,176 L 108,176 Z" fill="#ffffff" stroke="#595959" stroke-width="1.0"/><path d="M 232,65.5 L 232,100 L 232,100 L 232,158.5" fill="none" stroke="#595959" stroke-width="1.5"/><path d="M 252,166 L 280,166 L 280,176 L 252,176 Z" fill="#ffffff" stroke="#595959" stroke-width="1.0"/><path d="M 348,65.5 L 348,100 L 348,100 L 348,158.5" fill="none" stroke="#595959" stroke-width="1.5"/><path d="M 368,166 L 396,166 L 396,176 L 368,176 Z" fill="#ffffff" stroke="#595959" stroke-width="1.0"/><path d="M 476,65.5 L 476,100 L 476,100 L 476,158.5" fill="none" stroke="#595959" stroke-width="1.5"/><path d="M 496,166 L 524,166 L 524,176 L 496,176 Z" fill="#ffffff" stroke="#595959" stroke-width="1.0"/><path d="M 88,193.5 L 88,240.5 L 232,240.5 L 232,270.5" fill="none" stroke="#595959" stroke-width="1.5"/><path d="M 212,240.5 L 232,246 L 212,251.5 Z" fill="#595959" stroke="#595959" stroke-width="1.0"/><path d="M 88,193.5 L 88,240.5 L 348,240.5 L 348,270.5" fill="none" stroke="#595959" stroke-width="1.5"/><path d="M 328,240.5 L 348,246 L 328,251.5 Z" fill="#595959" stroke="#595959" stroke-width="1.0"/><path d="M 88,193.5 L 88,240.5 L 476,240.5 L 476,270.5" fill="none" stroke="#595959" stroke-width="1.5"/><path d="M 456,240.5 L 476,246 L 456,251.5 Z" fill="#595959" stroke="#595959" stroke-width="1.0"/><text fill="#000000" font-family="Arial" font-size="11" x="10" y="422"><tspan x="10">Co-authored by kiquetal</tspan></text></g></svg>
