<?plantuml 1.2026.2beta3?><svg xmlns="http://www.w3.org/2000/svg" xmlns:xlink="http://www.w3.org/1999/xlink" contentStyleType="text/css" data-diagram-type="DESCRIPTION" height="1025px" preserveAspectRatio="none" style="width:648px;height:1025px;background:#F8F9FA;" version="1.1" viewBox="0 0 648 1025" width="648.9583px" zoomAndPan="magnify"><defs><linearGradient id="gu80nrs2191mr0" x1="50%" x2="50%" y1="0%" y2="100%"><stop offset="0%" stop-color="#B8B8B8"/><stop offset="100%" stop-color="#6B6B6B"/></linearGradient><linearGradient id="gu80nrs2191mr1" x1="50%" x2="50%" y1="0%" y2="100%"><stop offset="0%" stop-color="#7C9AB9"/><stop offset="100%" stop-color="#304D6D"/></linearGradient><linearGradient id="gu80nrs2191mr2" x1="50%" x2="50%" y1="0%" y2="100%"><stop offset="0%" stop-color="#70B8F7"/><stop offset="100%" stop-color="#246BAA"/></linearGradient></defs><g><rect fill="#F8F9FA" height="1025" style="stroke:none;stroke-width:1.0417;" width="648.9583" x="0" y="0"/><!--cluster User Interface--><g class="cluster" data-qualified-name="User Interface" data-source-line="15" id="ent0002"><path d="M52.3542,16.6667 L52.3542,16.8613 L54.0208,16.283 L55.6875,16.8456 L57.3542,17.0367 L59.0208,16.0061 L60.6875,16.6667 L64.8542,20.8333 L64.7856,20.8115 L65.9362,25.2969 L67.4325,29.8923 L69.169,34.5642 L70.0775,38.9726 L72.1458,43.75 L72.1458,45.2879 L82.5625,41.9992 L92.9792,43.2006 L103.3958,44.9499 L113.8125,43.5117 L124.2292,43.9396 L134.6458,43.6613 L145.0625,44.2459 L155.4792,44.4143 L165.8958,45.3769 L176.3125,45.614 L186.7292,45.6368 L197.1458,44.4573 L207.5625,45.0377 L217.9792,45.7006 L228.3958,41.7467 L238.8125,45.6348 L249.2292,42.9264 L259.6458,45.2328 L270.0625,42.3749 L280.4792,43.5597 L290.8958,45.81 L301.3125,43.6146 L311.7292,44.0425 L322.1458,44.6906 L332.5625,44.9062 L342.9792,43.7391 L353.3958,44.5478 L363.8125,42.16 L374.2292,44.54 L384.6458,45.2728 L395.0625,44.9848 L405.4792,45.4528 L415.8958,42.4081 L426.3125,41.9384 L436.7292,42.0239 L447.1458,43.5864 L457.5625,43.2041 L467.9792,45.6428 L478.3958,43.75 L482.5625,47.9167 L482.0773,47.9167 L481.6096,59.0729 L483.1966,70.2292 L480.7102,81.3854 L481.1205,92.5417 L484.3651,103.6979 L483.7727,114.8542 L482.5625,126.0104 L478.3958,130.1771 L478.3958,132.2173 L468.0046,129.2832 L457.6133,131.0637 L447.2221,131.8171 L436.8308,128.8648 L426.4395,129.9108 L416.0483,130.527 L405.657,131.9875 L395.2658,130.1654 L384.8745,131.462 L374.4832,128.6388 L364.092,128.2958 L353.7007,131.576 L343.3095,128.1856 L332.9182,131.5909 L322.5269,130.7511 L312.1357,129.4329 L301.7444,129.1944 L291.3532,131.4514 L280.9619,129.3456 L270.5706,131.8211 L260.1794,128.6417 L249.7881,131.8922 L239.3968,131.5224 L229.0056,130.8576 L218.6143,130.3082 L208.2231,132.1954 L197.8318,131.8815 L187.4405,130.6472 L177.0493,130.9221 L166.658,129.8152 L156.2668,132.1672 L145.8755,130.6073 L135.4842,130.6565 L125.093,128.4872 L114.7017,129.0515 L104.3105,131.6514 L93.9192,131.3709 L83.5279,130.0578 L73.1367,129.2822 L62.7454,129.5689 L52.3542,130.1771 L48.1875,126.0104 L46.2815,126.0104 L49.3395,115.4927 L50.2418,104.975 L49.6497,94.4573 L50.1179,83.9396 L47.8077,73.4219 L48.4298,62.9042 L47.1108,52.3865 L48.9765,41.8688 L48.873,31.351 L48.1875,20.8333 L52.3542,16.6667" fill="url(#gu80nrs2191mr0)" style="stroke:#446E9B;stroke-width:2.0833;"/><path d="M48.1875,43.75 L48.1875,43.8473 L52.9792,43.5582 L57.7708,43.8395 L62.5625,43.935 L67.3542,43.4197 L72.1458,43.75" fill="url(#gu80nrs2191mr0)" style="stroke:#446E9B;stroke-width:2.0833;"/><text fill="#000000" font-family="'Verdana'" font-size="12.5" font-weight="bold" lengthAdjust="spacing" textLength="0" x="57.5625" y="23.9583">User Interface</text></g><!--cluster Osquery Core--><g class="cluster" data-qualified-name="Osquery Core" data-source-line="20" id="ent0005"><path d="M39.8542,189.5521 L39.8542,189.7467 L41.5208,189.1685 L43.1875,189.7311 L44.8542,189.9222 L46.5208,188.8915 L48.1875,189.5521 L52.3542,193.7188 L52.2856,193.6969 L53.4362,198.1823 L54.9325,202.7778 L56.669,207.4496 L57.5775,211.858 L59.6458,216.6354 L59.6458,218.1733 L69.8542,214.8846 L80.0625,216.0861 L90.2708,217.8353 L100.4792,216.3971 L110.6875,216.825 L120.8958,216.5467 L131.1042,217.1313 L141.3125,217.2997 L151.5208,218.2623 L161.7292,218.4995 L171.9375,218.5222 L182.1458,217.3427 L192.3542,217.9232 L202.5625,218.5861 L212.7708,214.6321 L222.9792,218.5202 L233.1875,215.8118 L243.3958,218.1182 L253.6042,215.2604 L263.8125,216.4451 L274.0208,218.6954 L284.2292,216.5 L294.4375,216.9279 L304.6458,217.576 L314.8542,216.6354 L319.0208,220.8021 L320.177,220.8021 L319.01,231.4503 L319.8186,242.0985 L317.4308,252.7467 L319.8108,263.3949 L320.5436,274.0431 L320.2556,284.6913 L320.7237,295.3395 L317.6789,305.9877 L317.2092,316.6359 L317.2947,327.2841 L318.8573,337.9323 L318.4749,348.5805 L320.9136,359.2287 L318.5356,369.8769 L318.0679,380.5251 L319.6549,391.1733 L317.1685,401.8215 L317.5788,412.4697 L320.8235,423.1179 L320.231,433.7661 L321.0611,444.4143 L319.0208,455.0625 L314.8542,459.2292 L314.8542,458.3353 L304.2772,460.1158 L293.7003,460.8692 L283.1234,457.9169 L272.5465,458.9629 L261.9696,459.5791 L251.3926,461.0396 L240.8157,459.2175 L230.2388,460.5141 L219.6619,457.6909 L209.0849,457.3479 L198.508,460.6281 L187.9311,457.2377 L177.3542,460.643 L166.7772,459.8031 L156.2003,458.485 L145.6234,458.2465 L135.0465,460.5035 L124.4696,458.3977 L113.8926,460.8732 L103.3157,457.6938 L92.7388,460.9442 L82.1619,460.5745 L71.5849,459.9096 L61.008,459.3603 L50.4311,461.2475 L39.8542,459.2292 L35.6875,455.0625 L37.3919,455.0625 L36.1577,444.6088 L36.4325,434.155 L35.3257,423.7013 L37.6776,413.2475 L36.1177,402.7938 L36.1669,392.34 L33.9976,381.8863 L34.5619,371.4325 L37.1618,360.9788 L36.8813,350.525 L35.5682,340.0713 L34.7926,329.6175 L35.0794,319.1638 L33.7815,308.71 L36.8395,298.2563 L37.7418,287.8025 L37.1497,277.3488 L37.6179,266.895 L35.3077,256.4413 L35.9298,245.9875 L34.6108,235.5338 L36.4765,225.08 L36.373,214.6263 L37.2219,204.1725 L35.6875,193.7188 L39.8542,189.5521" fill="url(#gu80nrs2191mr0)" style="stroke:#446E9B;stroke-width:2.0833;"/><path d="M35.6875,216.6354 L35.6875,216.7327 L40.4792,216.4436 L45.2708,216.7249 L50.0625,216.8205 L54.8542,216.3051 L59.6458,216.6354" fill="url(#gu80nrs2191mr0)" style="stroke:#446E9B;stroke-width:2.0833;"/><text fill="#000000" font-family="'Verdana'" font-size="12.5" font-weight="bold" lengthAdjust="spacing" textLength="0" x="45.0625" y="196.8438">Osquery Core</text></g><!--cluster Virtual Tables--><g class="cluster" data-qualified-name="Virtual Tables" data-source-line="25" id="ent0008"><path d="M33.6042,518.6042 L33.6042,518.7988 L35.2708,518.2205 L36.9375,518.7831 L38.6042,518.9742 L40.2708,517.9436 L41.9375,518.6042 L46.1042,522.7708 L46.0356,522.749 L47.1862,527.2344 L48.6825,531.8298 L50.419,536.5017 L51.3275,540.9101 L53.3958,545.6875 L53.3958,547.2254 L63.7381,543.9367 L74.0804,545.1381 L84.4226,546.8874 L94.7649,545.4492 L105.1071,545.8771 L115.4494,545.5988 L125.7917,546.1834 L136.1339,546.3518 L146.4762,547.3144 L156.8185,547.5515 L167.1607,547.5743 L177.503,546.3948 L187.8452,546.9752 L198.1875,547.6381 L208.5298,543.6842 L218.872,547.5723 L229.2143,544.8639 L239.5565,547.1703 L249.8988,544.3124 L260.2411,545.4972 L270.5833,547.7475 L280.9256,545.5521 L291.2679,545.98 L301.6101,546.6281 L311.9524,546.8437 L322.2946,545.6766 L332.6369,546.4853 L342.9792,544.0975 L353.3214,546.4775 L363.6637,547.2103 L374.006,546.9223 L384.3482,547.3903 L394.6905,544.3456 L405.0327,543.8759 L415.375,543.9614 L425.7173,545.5239 L436.0595,545.1416 L446.4018,547.5803 L456.744,545.2023 L467.0863,544.7346 L477.4286,546.3216 L487.7708,543.8352 L498.1131,544.2455 L508.4554,547.4901 L518.7976,546.8977 L529.1399,547.7278 L539.4821,544.7936 L549.8244,546.5742 L560.1667,547.3276 L570.5089,544.3753 L580.8512,545.4212 L591.1935,546.0375 L601.5357,547.4979 L611.878,545.6759 L622.2202,546.9724 L632.5625,545.6875 L636.7292,549.8542 L635.1909,549.8542 L634.8479,561.0104 L638.1281,572.1667 L634.7377,583.3229 L638.143,594.4792 L637.3031,605.6354 L635.985,616.7917 L636.7292,627.9479 L632.5625,632.1146 L632.5625,631.1319 L622.2356,633.3889 L611.9088,631.2831 L601.5819,633.7586 L591.255,630.5792 L580.9282,633.8297 L570.6013,633.4599 L560.2744,632.7951 L549.9476,632.2457 L539.6207,634.1329 L529.2938,633.819 L518.967,632.5847 L508.6401,632.8596 L498.3132,631.7527 L487.9864,634.1047 L477.6595,632.5448 L467.3326,632.594 L457.0057,630.4247 L446.6789,630.989 L436.352,633.5889 L426.0251,633.3084 L415.6983,631.9953 L405.3714,631.2197 L395.0445,631.5064 L384.7177,630.2085 L374.3908,633.2666 L364.0639,634.1689 L353.7371,633.5768 L343.4102,634.0449 L333.0833,631.7348 L322.7565,632.3569 L312.4296,631.0379 L302.1027,632.9036 L291.7759,632.8 L281.449,633.649 L271.1221,631.4766 L260.7953,631.7412 L250.4684,633.3464 L240.1415,633.6905 L229.8147,630.6909 L219.4878,631.576 L209.1609,632.5292 L198.8341,630.4178 L188.5072,633.0962 L178.1803,632.8312 L167.8534,631.8347 L157.5266,632.5097 L147.1997,634.1387 L136.8728,631.2455 L126.546,632.9895 L116.2191,632.908 L105.8922,632.4362 L95.5654,632.506 L85.2385,632.4298 L74.9116,630.3808 L64.5848,631.0012 L54.2579,630.8325 L43.931,632.2919 L33.6042,632.1146 L29.4375,627.9479 L29.6823,627.9479 L29.8868,617.4302 L28.6292,606.9125 L29.2499,596.3948 L29.1036,585.8771 L31.0399,575.3594 L30.6224,564.8417 L28.0888,554.324 L29.2349,543.8063 L27.8341,533.2885 L29.4375,522.7708 L33.6042,518.6042" fill="url(#gu80nrs2191mr0)" style="stroke:#446E9B;stroke-width:2.0833;"/><path d="M29.4375,545.6875 L29.4375,545.7848 L34.2292,545.4957 L39.0208,545.777 L43.8125,545.8725 L48.6042,545.3572 L53.3958,545.6875" fill="url(#gu80nrs2191mr0)" style="stroke:#446E9B;stroke-width:2.0833;"/><text fill="#000000" font-family="'Verdana'" font-size="12.5" font-weight="bold" lengthAdjust="spacing" textLength="0" x="38.8125" y="525.8958">Virtual Tables</text></g><!--cluster Operating System--><g class="cluster" data-qualified-name="Operating System" data-source-line="31" id="ent0012"><path d="M139.8542,691.4896 L139.8542,691.6842 L141.5208,691.106 L143.1875,691.6686 L144.8542,691.8597 L146.5208,690.829 L148.1875,691.4896 L152.3542,695.6563 L152.2856,695.6344 L153.4362,700.1198 L154.9325,704.7153 L156.669,709.3871 L157.5775,713.7955 L159.6458,718.5729 L159.6458,720.1108 L170.1238,716.8221 L180.6017,718.0236 L191.0797,719.7728 L201.5576,718.3346 L212.0355,718.7625 L222.5135,718.4842 L232.9914,719.0688 L243.4694,719.2372 L253.9473,720.1998 L264.4252,720.437 L274.9032,720.4597 L285.3811,719.2802 L295.8591,719.8607 L306.337,720.5236 L316.815,716.5696 L327.2929,720.4577 L337.7708,717.7493 L348.2488,720.0557 L358.7267,717.1979 L369.2047,718.3826 L379.6826,720.6329 L390.1605,718.4375 L400.6385,718.8654 L411.1164,719.5135 L421.5944,719.7291 L432.0723,718.5621 L442.5502,719.3707 L453.0282,716.9829 L463.5061,719.3629 L473.9841,720.0957 L484.462,719.8077 L494.94,720.2758 L505.4179,717.231 L515.8958,718.5729 L520.0625,722.7396 L518.2509,722.7396 L518.3364,733.3517 L519.8989,743.9638 L519.5166,754.5759 L521.9553,765.188 L519.5773,775.8001 L519.1096,786.4122 L520.6966,797.0243 L518.2102,807.6364 L518.6205,818.2485 L521.8651,828.8606 L521.2727,839.4727 L522.1028,850.0848 L519.1686,860.6969 L520.9492,871.309 L521.7026,881.9211 L518.7503,892.5332 L519.7962,903.1453 L520.4125,913.7574 L521.8729,924.3695 L520.0509,934.9816 L520.0625,945.5938 L515.8958,949.7604 L515.8958,951.0453 L505.4502,948.2221 L495.0046,947.8791 L484.559,951.1593 L474.1134,947.7689 L463.6678,951.1742 L453.2222,950.3344 L442.7766,949.0162 L432.331,948.7777 L421.8854,951.0347 L411.4398,948.9289 L400.9942,951.4045 L390.5486,948.225 L380.103,951.4755 L369.6574,951.1057 L359.2118,950.4409 L348.7662,949.8916 L338.3206,951.7788 L327.875,951.4648 L317.4294,950.2306 L306.9838,950.5054 L296.5382,949.3986 L286.0926,951.7506 L275.647,950.1906 L265.2014,950.2398 L254.7558,948.0706 L244.3102,948.6348 L233.8646,951.2347 L223.419,950.9542 L212.9734,949.6412 L202.5278,948.8655 L192.0822,949.1523 L181.6366,947.8544 L171.191,950.9125 L160.7454,951.8148 L150.2998,951.2226 L139.8542,949.7604 L135.6875,945.5938 L137.6179,945.5938 L135.3077,935.1797 L135.9298,924.7656 L134.6108,914.3516 L136.4765,903.9375 L136.373,893.5234 L137.2219,883.1094 L135.0496,872.6953 L135.3142,862.2813 L136.9193,851.8672 L137.2634,841.4531 L134.2638,831.0391 L135.1489,820.625 L136.1021,810.2109 L133.9907,799.7969 L136.6691,789.3828 L136.4041,778.9688 L135.4076,768.5547 L136.0826,758.1406 L137.7116,747.7266 L134.8184,737.3125 L136.5625,726.8984 L136.481,716.4844 L136.0091,706.0703 L135.6875,695.6563 L139.8542,691.4896" fill="url(#gu80nrs2191mr0)" style="stroke:#446E9B;stroke-width:2.0833;"/><path d="M135.6875,718.5729 L135.6875,718.6702 L140.4792,718.3811 L145.2708,718.6624 L150.0625,718.758 L154.8542,718.2426 L159.6458,718.5729" fill="url(#gu80nrs2191mr0)" style="stroke:#446E9B;stroke-width:2.0833;"/><text fill="#000000" font-family="'Verdana'" font-size="12.5" font-weight="bold" lengthAdjust="spacing" textLength="0" x="145.0625" y="698.7813">Operating System</text></g><!--entity shell--><g class="entity" data-qualified-name="User Interface.shell" data-source-line="16" id="ent0003"><polygon fill="url(#gu80nrs2191mr1)" points="69.3438,57.2917,69.3438,57.5106,79.8454,56.8601,90.347,57.493,100.8487,57.708,111.3503,56.5485,121.8519,57.2107,132.3536,56.8474,142.8552,56.8922,153.3568,57.2207,163.8585,56.5715,174.3601,57.8684,184.8618,56.6351,195.3634,57.0857,205.865,57.7416,216.3667,57.2023,226.8683,57.3627,237.3699,57.2584,247.8716,57.2917,247.8953,57.3489,248.4926,57.6125,249.1279,57.9677,249.7285,58.2392,250.3189,58.4859,250.8179,58.5121,250.8995,58.5459,251.2107,59.1629,251.5313,59.7839,251.3187,60.184,252.0118,60.9592,252.0382,61.4583,251.7294,61.4583,252.5943,71.0352,251.5226,80.612,251.9669,90.1888,252.8108,99.7656,252.0382,109.3424,252.0226,109.336,251.828,109.9457,251.6587,110.566,251.4395,111.1655,251.0607,111.699,250.8179,112.2887,250.856,112.3809,250.1525,112.3492,249.6771,112.8681,249.1229,113.1968,248.5199,113.4076,247.8716,113.5091,247.8716,114.1477,237.3699,113.0059,226.8683,112.8298,216.3667,112.8618,205.865,113.4478,195.3634,113.3044,184.8618,114.2189,174.3601,113.3272,163.8585,113.1518,153.3568,113.7469,142.8552,112.8145,132.3536,112.9684,121.8519,114.1851,111.3503,113.9629,100.8487,114.2742,90.347,113.1739,79.8454,113.8416,69.3438,113.5091,69.4222,113.6985,68.6917,113.1135,68.1525,112.9902,67.5927,112.8173,67.0733,112.7419,66.3975,112.2887,66.3961,112.2882,66.3018,111.7609,65.7317,111.0366,65.448,110.431,65.5827,109.9986,65.1771,109.3424,64.4303,109.3424,65.7073,99.7656,65.3923,90.1888,64.898,80.612,64.8086,71.0352,65.1771,61.4583,65.3242,61.5193,65.3251,60.8293,65.8551,60.3585,65.732,59.6171,66.3515,59.1834,66.3975,58.5121,66.4618,58.6674,67.0193,58.3466,67.5823,58.039,68.2618,58.0129,68.836,57.7326,69.3438,57.2917" style="stroke:#304D6D;stroke-width:1.0417;"/><polygon fill="url(#gu80nrs2191mr1)" points="231.2049,62.5,231.2049,62.573,234.3299,62.3561,237.4549,62.5671,240.5799,62.6388,243.7049,62.2523,246.8299,62.5,246.8029,62.5,246.6818,64.5833,246.6968,66.6667,246.8062,68.75,246.5899,70.8333,246.8299,72.9167,246.8299,73.1089,243.7049,72.6978,240.5799,72.848,237.4549,73.0666,234.3299,72.8869,231.2049,72.9167,231.2286,72.9167,231.1938,70.8333,231.2669,68.75,231.2879,66.6667,231.4083,64.5833,231.2049,62.5" style="stroke:#304D6D;stroke-width:1.0417;"/><polygon fill="url(#gu80nrs2191mr1)" points="229.1216,64.5833,229.1216,64.6563,229.9549,64.4395,230.7882,64.6504,231.6216,64.7221,232.4549,64.3356,233.2882,64.5833,233.2613,64.5833,233.1402,65,233.1551,65.4167,233.2646,65.8333,233.0482,66.25,233.2882,66.6667,233.2882,66.8589,232.4549,66.4478,231.6216,66.598,230.7882,66.8166,229.9549,66.6369,229.1216,66.6667,229.1453,66.6667,229.1105,66.25,229.1836,65.8333,229.2046,65.4167,229.3249,65,229.1216,64.5833" style="stroke:#304D6D;stroke-width:1.0417;"/><polygon fill="url(#gu80nrs2191mr1)" points="229.1216,68.75,229.1216,68.823,229.9549,68.6061,230.7882,68.8171,231.6216,68.8888,232.4549,68.5023,233.2882,68.75,233.2613,68.75,233.1402,69.1667,233.1551,69.5833,233.2646,70,233.0482,70.4167,233.2882,70.8333,233.2882,71.0256,232.4549,70.6145,231.6216,70.7647,230.7882,70.9833,229.9549,70.8035,229.1216,70.8333,229.1453,70.8333,229.1105,70.4167,229.1836,70,229.2046,69.5833,229.3249,69.1667,229.1216,68.75" style="stroke:#304D6D;stroke-width:1.0417;"/><text fill="#000000" font-family="'Verdana'" font-size="12.5" lengthAdjust="spacing" textLength="134.7778" x="86.0104" y="94.9361">osqueryi (Interactive)</text></g><!--entity daemon--><g class="entity" data-qualified-name="User Interface.daemon" data-source-line="17" id="ent0004"><polygon fill="url(#gu80nrs2191mr1)" points="293.1667,57.2917,293.1667,57.5106,303.6903,56.8601,314.2139,57.493,324.7375,57.708,335.2611,56.5485,345.7847,57.2107,356.3083,56.8474,366.8319,56.8922,377.3555,57.2207,387.8791,56.5715,398.4027,57.8684,408.9263,56.6351,419.4499,57.0857,429.9735,57.7416,440.4971,57.2023,451.0207,57.3627,461.5444,57.2917,461.5401,57.2814,462.1573,57.593,462.7546,57.8565,463.3899,58.2118,463.9905,58.4832,464.4906,58.5121,464.7085,58.6023,464.8164,59.1351,465.1275,59.7522,465.4481,60.3731,465.2356,60.7732,465.711,61.4583,466.4178,61.4583,465.4022,71.0352,466.2671,80.612,465.1954,90.1888,465.6397,99.7656,465.711,109.3424,465.9489,109.441,465.4513,109.9252,465.2566,110.535,465.0874,111.1552,464.8682,111.7548,464.4906,112.2887,464.4901,112.2875,463.9395,112.6249,463.2361,112.5933,462.7607,113.1122,462.2064,113.4409,461.5444,113.5091,461.5444,113.9722,451.0207,114.1477,440.4971,113.0059,429.9735,112.8298,419.4499,112.8618,408.9263,113.4478,398.4027,113.3044,387.8791,114.2189,377.3555,113.3272,366.8319,113.1518,356.3083,113.7469,345.7847,112.8145,335.2611,112.9684,324.7375,114.1851,314.2139,113.9629,303.6903,114.2742,293.1667,113.5091,293.1239,113.4059,292.6198,113.3674,292.0666,113.2104,291.3361,112.6253,290.7969,112.5021,290.2204,112.2887,290.2608,112.3055,290.1854,111.7861,289.7309,111.1097,289.6365,110.5824,289.0664,109.8581,289,109.3424,288.2945,109.3424,289.5246,99.7656,288.2532,90.1888,289.5302,80.612,289.2152,71.0352,289,61.4583,288.9141,61.4227,289.1306,60.8221,289.6353,60.3408,289.6362,59.6508,290.1662,59.18,290.2204,58.5121,290.1469,58.3347,290.8917,58.466,291.4633,58.1793,292.0207,57.8584,292.5837,57.5509,293.1667,57.2917" style="stroke:#304D6D;stroke-width:1.0417;"/><polygon fill="url(#gu80nrs2191mr1)" points="444.8777,62.5,444.8777,62.573,448.0027,62.3561,451.1277,62.5671,454.2527,62.6388,457.3777,62.2523,460.5027,62.5,460.4757,62.5,460.3546,64.5833,460.3695,66.6667,460.479,68.75,460.2626,70.8333,460.5027,72.9167,460.5027,73.1089,457.3777,72.6978,454.2527,72.848,451.1277,73.0666,448.0027,72.8869,444.8777,72.9167,444.9014,72.9167,444.8666,70.8333,444.9397,68.75,444.9607,66.6667,445.0811,64.5833,444.8777,62.5" style="stroke:#304D6D;stroke-width:1.0417;"/><polygon fill="url(#gu80nrs2191mr1)" points="442.7944,64.5833,442.7944,64.6563,443.6277,64.4395,444.461,64.6504,445.2944,64.7221,446.1277,64.3356,446.961,64.5833,446.934,64.5833,446.8129,65,446.8279,65.4167,446.9374,65.8333,446.721,66.25,446.961,66.6667,446.961,66.8589,446.1277,66.4478,445.2944,66.598,444.461,66.8166,443.6277,66.6369,442.7944,66.6667,442.818,66.6667,442.7833,66.25,442.8563,65.8333,442.8774,65.4167,442.9977,65,442.7944,64.5833" style="stroke:#304D6D;stroke-width:1.0417;"/><polygon fill="url(#gu80nrs2191mr1)" points="442.7944,68.75,442.7944,68.823,443.6277,68.6061,444.461,68.8171,445.2944,68.8888,446.1277,68.5023,446.961,68.75,446.934,68.75,446.8129,69.1667,446.8279,69.5833,446.9374,70,446.721,70.4167,446.961,70.8333,446.961,71.0256,446.1277,70.6145,445.2944,70.7647,444.461,70.9833,443.6277,70.8035,442.7944,70.8333,442.818,70.8333,442.7833,70.4167,442.8563,70,442.8774,69.5833,442.9977,69.1667,442.7944,68.75" style="stroke:#304D6D;stroke-width:1.0417;"/><text fill="#000000" font-family="'Verdana'" font-size="12.5" lengthAdjust="spacing" textLength="124.6277" x="309.8333" y="94.9361">osqueryd (Daemon)</text></g><!--entity sql--><g class="entity" data-qualified-name="Osquery Core.sql" data-source-line="21" id="ent0006"><polygon fill="url(#gu80nrs2191mr1)" points="125.7708,230.1771,125.7708,230.396,136.3852,229.7455,146.9996,230.3784,157.614,230.5934,168.2284,229.434,178.8428,230.0961,189.4572,229.7328,200.0716,229.7776,210.686,230.1061,221.3004,229.4569,231.9148,230.7538,242.5292,229.5205,253.1436,229.9711,263.758,230.627,274.3724,230.0877,284.9868,230.2482,295.6012,230.1771,295.5969,230.1668,296.2141,230.4784,296.8114,230.742,297.4467,231.0972,298.0473,231.3687,298.5474,231.3975,298.7653,231.4877,298.8732,232.0206,299.1843,232.6376,299.5049,233.2585,299.2924,233.6587,299.7678,234.3438,300.4746,234.3438,299.459,243.9206,300.3239,253.4974,299.2522,263.0742,299.6965,272.651,299.7678,282.2279,300.0057,282.3264,299.5081,282.8106,299.3134,283.4204,299.1442,284.0406,298.925,284.6402,298.5474,285.1741,298.5469,285.1729,297.9963,285.5104,297.2929,285.4787,296.8175,285.9976,296.2633,286.3263,295.6012,286.3945,295.6012,286.8576,284.9868,287.0331,274.3724,285.8913,263.758,285.7152,253.1436,285.7472,242.5292,286.3332,231.9148,286.1898,221.3004,287.1043,210.686,286.2126,200.0716,286.0372,189.4572,286.6323,178.8428,285.6999,168.2284,285.8538,157.614,287.0705,146.9996,286.8484,136.3852,287.1596,125.7708,286.3945,125.7281,286.2913,125.224,286.2528,124.6708,286.0958,123.9403,285.5108,123.4011,285.3875,122.8246,285.1741,122.865,285.1909,122.7896,284.6715,122.3351,283.9951,122.2407,283.4678,121.6706,282.7435,121.6042,282.2279,120.8987,282.2279,122.1288,272.651,120.8574,263.0742,122.1343,253.4974,121.8194,243.9206,121.6042,234.3438,121.5182,234.3082,121.7348,233.7075,122.2395,233.2262,122.2404,232.5362,122.7703,232.0654,122.8246,231.3975,122.7511,231.2202,123.4959,231.3515,124.0674,231.0647,124.6249,230.7438,125.1879,230.4363,125.7708,230.1771" style="stroke:#304D6D;stroke-width:1.0417;"/><polygon fill="url(#gu80nrs2191mr1)" points="278.9345,235.3854,278.9345,235.4584,282.0595,235.2416,285.1845,235.4525,288.3095,235.5242,291.4345,235.1377,294.5595,235.3854,294.5325,235.3854,294.4114,237.4688,294.4263,239.5521,294.5358,241.6354,294.3194,243.7188,294.5595,245.8021,294.5595,245.9943,291.4345,245.5832,288.3095,245.7334,285.1845,245.9521,282.0595,245.7723,278.9345,245.8021,278.9582,245.8021,278.9234,243.7188,278.9965,241.6354,279.0175,239.5521,279.1379,237.4688,278.9345,235.3854" style="stroke:#304D6D;stroke-width:1.0417;"/><polygon fill="url(#gu80nrs2191mr1)" points="276.8512,237.4688,276.8512,237.5417,277.6845,237.3249,278.5178,237.5359,279.3512,237.6075,280.1845,237.221,281.0178,237.4688,280.9908,237.4688,280.8697,237.8854,280.8847,238.3021,280.9942,238.7188,280.7778,239.1354,281.0178,239.5521,281.0178,239.7443,280.1845,239.3332,279.3512,239.4834,278.5178,239.7021,277.6845,239.5223,276.8512,239.5521,276.8748,239.5521,276.8401,239.1354,276.9131,238.7188,276.9342,238.3021,277.0545,237.8854,276.8512,237.4688" style="stroke:#304D6D;stroke-width:1.0417;"/><polygon fill="url(#gu80nrs2191mr1)" points="276.8512,241.6354,276.8512,241.7084,277.6845,241.4916,278.5178,241.7025,279.3512,241.7742,280.1845,241.3877,281.0178,241.6354,280.9908,241.6354,280.8697,242.0521,280.8847,242.4688,280.9942,242.8854,280.7778,243.3021,281.0178,243.7188,281.0178,243.911,280.1845,243.4999,279.3512,243.6501,278.5178,243.8687,277.6845,243.689,276.8512,243.7188,276.8748,243.7188,276.8401,243.3021,276.9131,242.8854,276.9342,242.4688,277.0545,242.0521,276.8512,241.6354" style="stroke:#304D6D;stroke-width:1.0417;"/><text fill="#000000" font-family="'Verdana'" font-size="12.5" lengthAdjust="spacing" textLength="126.0803" x="142.4375" y="267.8215">SQL Engine (SQLite)</text></g><!--entity registry--><g class="entity" data-qualified-name="Osquery Core.registry" data-source-line="22" id="ent0007"><polygon fill="url(#gu80nrs2191mr1)" points="113.9271,386.3438,113.9271,386.5627,124.4531,385.9122,134.9792,386.5451,145.5052,386.7601,156.0313,385.6006,166.5573,386.2628,177.0834,385.8995,187.6094,385.9443,198.1355,386.2728,208.6615,385.6236,219.1876,386.9205,229.7136,385.6872,240.2397,386.1377,250.7657,386.7937,261.2918,386.2544,271.8179,386.4148,282.3439,386.3105,292.87,386.3438,292.8937,386.401,293.491,386.6645,294.1263,387.0198,294.7269,387.2913,295.3172,387.538,295.8162,387.5641,295.8979,387.598,296.209,388.215,296.5297,388.836,296.3171,389.2361,297.0102,390.0113,297.0366,390.5104,296.7278,390.5104,297.5927,400.0872,296.521,409.6641,296.9653,419.2409,297.8091,428.8177,297.0366,438.3945,297.021,438.3881,296.8263,438.9978,296.6571,439.618,296.4379,440.2176,296.0591,440.751,295.8162,441.3408,295.8544,441.4329,295.1509,441.4013,294.6755,441.9202,294.1213,442.2489,293.5183,442.4597,292.87,442.5612,292.87,443.1998,282.3439,442.058,271.8179,441.8818,261.2918,441.9139,250.7657,442.4999,240.2397,442.3565,229.7136,443.271,219.1876,442.3792,208.6615,442.2039,198.1355,442.799,187.6094,441.8666,177.0834,442.0204,166.5573,443.2372,156.0313,443.015,145.5052,443.3263,134.9792,442.226,124.4531,442.8937,113.9271,442.5612,114.0055,442.7506,113.2751,442.1656,112.7358,442.0423,112.1761,441.8694,111.6567,441.794,110.9808,441.3408,110.9795,441.3403,110.8851,440.813,110.315,440.0887,110.0313,439.4831,110.166,439.0507,109.7604,438.3945,109.0136,438.3945,110.2906,428.8177,109.9757,419.2409,109.4813,409.6641,109.3919,400.0872,109.7604,390.5104,109.9076,390.5714,109.9085,389.8814,110.4384,389.4105,110.3153,388.6692,110.9348,388.2354,110.9808,387.5641,111.0452,387.7195,111.6026,387.3986,112.1656,387.0911,112.8451,387.065,113.4194,386.7847,113.9271,386.3438" style="stroke:#304D6D;stroke-width:1.0417;"/><polygon fill="url(#gu80nrs2191mr1)" points="276.2033,391.5521,276.2033,391.6251,279.3283,391.4082,282.4533,391.6192,285.5783,391.6909,288.7033,391.3044,291.8283,391.5521,291.8013,391.5521,291.6802,393.6354,291.6951,395.7188,291.8046,397.8021,291.5882,399.8854,291.8283,401.9688,291.8283,402.161,288.7033,401.7499,285.5783,401.9001,282.4533,402.1187,279.3283,401.939,276.2033,401.9688,276.227,401.9688,276.1922,399.8854,276.2653,397.8021,276.2863,395.7188,276.4067,393.6354,276.2033,391.5521" style="stroke:#304D6D;stroke-width:1.0417;"/><polygon fill="url(#gu80nrs2191mr1)" points="274.12,393.6354,274.12,393.7084,274.9533,393.4916,275.7866,393.7025,276.62,393.7742,277.4533,393.3877,278.2866,393.6354,278.2596,393.6354,278.1385,394.0521,278.1535,394.4688,278.263,394.8854,278.0466,395.3021,278.2866,395.7188,278.2866,395.911,277.4533,395.4999,276.62,395.6501,275.7866,395.8687,274.9533,395.689,274.12,395.7188,274.1436,395.7188,274.1089,395.3021,274.1819,394.8854,274.203,394.4688,274.3233,394.0521,274.12,393.6354" style="stroke:#304D6D;stroke-width:1.0417;"/><polygon fill="url(#gu80nrs2191mr1)" points="274.12,397.8021,274.12,397.8751,274.9533,397.6582,275.7866,397.8692,276.62,397.9409,277.4533,397.5544,278.2866,397.8021,278.2596,397.8021,278.1385,398.2188,278.1535,398.6354,278.263,399.0521,278.0466,399.4688,278.2866,399.8854,278.2866,400.0777,277.4533,399.6666,276.62,399.8167,275.7866,400.0354,274.9533,399.8556,274.12,399.8854,274.1436,399.8854,274.1089,399.4688,274.1819,399.0521,274.203,398.6354,274.3233,398.2188,274.12,397.8021" style="stroke:#304D6D;stroke-width:1.0417;"/><text fill="#000000" font-family="'Verdana'" font-size="12.5" lengthAdjust="spacing" textLength="135.1929" x="130.5938" y="423.9882">Virtual Table Registry</text></g><!--entity proc_table--><g class="entity" data-qualified-name="Virtual Tables.proc_table" data-source-line="26" id="ent0009"><polygon fill="url(#gu80nrs2191mr1)" points="211.4896,559.2292,211.4896,559.4481,221.7919,558.7976,232.0942,559.4305,242.3965,559.6455,252.6988,558.486,263.0011,559.1482,273.3034,558.7849,283.6057,558.8297,293.908,559.1582,304.2103,558.509,314.5126,559.8059,324.8149,558.5726,335.1172,559.0232,345.4195,559.6791,355.7218,559.2292,355.7104,559.2017,356.3201,559.4951,356.896,559.7071,357.5132,560.0187,358.1106,560.2822,358.668,560.4496,358.8559,560.5274,359.1274,561.128,359.3741,561.7183,359.482,562.2512,359.7931,562.8682,359.8884,563.3958,360.6199,563.3958,359.1372,572.9727,360.5952,582.5495,359.5796,592.1263,360.4445,601.7031,359.8884,611.2799,359.7296,611.2142,359.6224,611.8601,359.6382,612.557,359.1406,613.0412,358.9459,613.651,358.668,614.2262,358.713,614.3349,358.1341,614.6038,357.489,614.7131,356.9384,615.0506,356.235,615.0189,355.7218,615.4466,355.7218,615.7429,345.4195,616.0177,335.1172,615.9097,324.8149,616.0852,314.5126,614.9434,304.2103,614.7673,293.908,614.7993,283.6057,615.3853,273.3034,615.2419,263.0011,616.1564,252.6988,615.2647,242.3965,615.0893,232.0942,615.6844,221.7919,614.752,211.4896,615.4466,211.4206,615.2801,210.9866,615.4107,210.369,615.0982,209.8194,614.95,209.0898,614.3671,208.5433,614.2262,208.6457,614.2686,208.4886,613.7154,207.9036,612.9849,207.7803,612.4457,207.6074,611.8859,207.3229,611.2799,208.0018,611.2799,207.3186,601.7031,207.8048,592.1263,206.7461,582.5495,206.6174,572.9727,207.3229,563.3958,207.4845,563.4628,207.337,562.7113,207.9743,562.285,208.1214,561.6555,208.2133,561.0032,208.5433,560.4496,208.4963,560.3361,209.1935,560.3526,209.682,559.8654,210.3897,559.9072,210.8269,559.2959,211.4896,559.2292" style="stroke:#304D6D;stroke-width:1.0417;"/><polygon fill="url(#gu80nrs2191mr1)" points="339.0551,564.4375,339.0551,564.5105,342.1801,564.2936,345.3051,564.5046,348.4301,564.5763,351.5551,564.1898,354.6801,564.4375,354.6531,564.4375,354.532,566.5208,354.5469,568.6042,354.6564,570.6875,354.44,572.7708,354.6801,574.8542,354.6801,575.0464,351.5551,574.6353,348.4301,574.7855,345.3051,575.0041,342.1801,574.8244,339.0551,574.8542,339.0788,574.8542,339.044,572.7708,339.1171,570.6875,339.1381,568.6042,339.2585,566.5208,339.0551,564.4375" style="stroke:#304D6D;stroke-width:1.0417;"/><polygon fill="url(#gu80nrs2191mr1)" points="336.9718,566.5208,336.9718,566.5938,337.8051,566.377,338.6384,566.5879,339.4718,566.6596,340.3051,566.2731,341.1384,566.5208,341.1114,566.5208,340.9903,566.9375,341.0053,567.3542,341.1148,567.7708,340.8984,568.1875,341.1384,568.6042,341.1384,568.7964,340.3051,568.3853,339.4718,568.5355,338.6384,568.7541,337.8051,568.5744,336.9718,568.6042,336.9955,568.6042,336.9607,568.1875,337.0337,567.7708,337.0548,567.3542,337.1751,566.9375,336.9718,566.5208" style="stroke:#304D6D;stroke-width:1.0417;"/><polygon fill="url(#gu80nrs2191mr1)" points="336.9718,570.6875,336.9718,570.7605,337.8051,570.5436,338.6384,570.7546,339.4718,570.8263,340.3051,570.4398,341.1384,570.6875,341.1114,570.6875,340.9903,571.1042,341.0053,571.5208,341.1148,571.9375,340.8984,572.3542,341.1384,572.7708,341.1384,572.9631,340.3051,572.552,339.4718,572.7022,338.6384,572.9208,337.8051,572.741,336.9718,572.7708,336.9955,572.7708,336.9607,572.3542,337.0337,571.9375,337.0548,571.5208,337.1751,571.1042,336.9718,570.6875" style="stroke:#304D6D;stroke-width:1.0417;"/><text fill="#000000" font-family="'Verdana'" font-size="12.5" lengthAdjust="spacing" textLength="100.4822" x="228.1563" y="596.8736">Processes Table</text></g><!--entity user_table--><g class="entity" data-qualified-name="Virtual Tables.user_table" data-source-line="27" id="ent0010"><polygon fill="url(#gu80nrs2191mr1)" points="50.0417,559.2292,50.0417,559.4481,60.689,558.7976,71.3363,559.4305,81.9836,559.6455,92.6309,558.486,103.2782,559.1482,113.9255,558.7849,124.5728,558.8297,135.2201,559.1582,145.8674,558.509,156.5147,559.8059,167.162,559.2292,167.0783,559.027,167.725,559.4098,168.3979,559.8559,168.9184,559.9339,169.5281,560.2274,170.1083,560.4496,170.0981,560.4453,170.4097,561.0625,170.6732,561.6598,171.0284,562.2951,171.2999,562.8957,171.3287,563.3958,172.0363,563.3958,171.5939,572.9727,171.8116,582.5495,172.0602,592.1263,170.5775,601.7031,171.3287,611.2799,171.5464,611.3701,170.9895,611.8298,171.0118,612.5294,170.4377,612.9819,170.3304,613.6279,170.1083,614.2262,170.2068,614.4641,169.5126,614.4547,168.9438,614.7482,168.3855,615.0671,167.8066,615.3361,167.162,615.4466,167.162,615.4425,156.5147,615.7458,145.8674,614.8503,135.2201,615.7429,124.5728,616.0177,113.9255,615.9097,103.2782,616.0852,92.6309,614.9434,81.9836,614.7673,71.3363,614.7993,60.689,615.3853,50.0417,615.4466,50.0156,615.3836,49.543,615.4211,48.8399,614.9024,48.2283,614.6043,47.715,614.5435,47.0954,614.2262,46.8815,614.1376,46.6848,613.568,46.8154,613.1339,46.5029,612.5163,46.3547,611.9668,45.875,611.2799,45.5398,611.2799,46.2075,601.7031,46.49,592.1263,45.3829,582.5495,45.7751,572.9727,45.875,563.3958,45.9154,563.4126,46.3282,562.8932,46.3618,562.2168,46.7556,561.6895,46.6737,560.9652,47.0954,560.4496,47.0054,560.2323,47.7516,560.367,48.1786,559.7314,48.9308,559.8806,49.4799,559.5395,50.0417,559.2292" style="stroke:#304D6D;stroke-width:1.0417;"/><polygon fill="url(#gu80nrs2191mr1)" points="150.4954,564.4375,150.4954,564.5105,153.6204,564.2936,156.7454,564.5046,159.8704,564.5763,162.9954,564.1898,166.1204,564.4375,166.0934,564.4375,165.9723,566.5208,165.9872,568.6042,166.0967,570.6875,165.8803,572.7708,166.1204,574.8542,166.1204,575.0464,162.9954,574.6353,159.8704,574.7855,156.7454,575.0041,153.6204,574.8244,150.4954,574.8542,150.5191,574.8542,150.4843,572.7708,150.5573,570.6875,150.5784,568.6042,150.6987,566.5208,150.4954,564.4375" style="stroke:#304D6D;stroke-width:1.0417;"/><polygon fill="url(#gu80nrs2191mr1)" points="148.412,566.5208,148.412,566.5938,149.2454,566.377,150.0787,566.5879,150.912,566.6596,151.7454,566.2731,152.5787,566.5208,152.5517,566.5208,152.4306,566.9375,152.4455,567.3542,152.555,567.7708,152.3386,568.1875,152.5787,568.6042,152.5787,568.7964,151.7454,568.3853,150.912,568.5355,150.0787,568.7541,149.2454,568.5744,148.412,568.6042,148.4357,568.6042,148.4009,568.1875,148.474,567.7708,148.4951,567.3542,148.6154,566.9375,148.412,566.5208" style="stroke:#304D6D;stroke-width:1.0417;"/><polygon fill="url(#gu80nrs2191mr1)" points="148.412,570.6875,148.412,570.7605,149.2454,570.5436,150.0787,570.7546,150.912,570.8263,151.7454,570.4398,152.5787,570.6875,152.5517,570.6875,152.4306,571.1042,152.4455,571.5208,152.555,571.9375,152.3386,572.3542,152.5787,572.7708,152.5787,572.9631,151.7454,572.552,150.912,572.7022,150.0787,572.9208,149.2454,572.741,148.412,572.7708,148.4357,572.7708,148.4009,572.3542,148.474,571.9375,148.4951,571.5208,148.6154,571.1042,148.412,570.6875" style="stroke:#304D6D;stroke-width:1.0417;"/><text fill="#000000" font-family="'Verdana'" font-size="12.5" lengthAdjust="spacing" textLength="73.3704" x="66.7083" y="596.8736">Users Table</text></g><!--entity net_table--><g class="entity" data-qualified-name="Virtual Tables.net_table" data-source-line="28" id="ent0011"><polygon fill="url(#gu80nrs2191mr1)" points="400.8438,559.2292,400.8438,559.4481,411.1067,558.7976,421.3696,559.4305,431.6325,559.6455,441.8954,558.486,452.1583,559.1482,462.4212,558.7849,472.6842,558.8297,482.9471,559.1582,493.21,558.509,503.4729,559.8059,513.7358,558.5726,523.9987,559.0232,534.2617,559.6791,544.5246,559.1398,554.7875,559.3002,565.0504,559.1959,575.3133,559.4151,585.5762,559.4783,595.8392,559.8393,606.1021,559.9282,616.365,559.2292,616.4552,559.4471,616.9881,559.5549,617.6051,559.866,618.2261,560.1867,618.6262,559.9741,619.3113,560.4496,619.5289,560.5397,619.4602,560.9994,619.9707,561.699,619.8847,562.1515,620.2656,562.7975,620.5317,563.3958,621.3042,563.3958,620.4809,572.9727,620.6413,582.5495,620.8844,592.1263,620.9652,601.7031,620.5317,611.2799,620.5304,611.2794,620.3797,611.9074,619.8599,612.3824,619.8907,613.0855,619.7312,613.7098,619.3113,614.2262,619.3703,614.3688,618.8035,614.667,618.0686,614.5594,617.4568,614.7492,616.8717,615.0032,616.365,615.4466,616.365,615.3853,606.1021,615.2419,595.8392,616.1564,585.5762,615.2647,575.3133,615.0893,565.0504,615.6844,554.7875,614.752,544.5246,614.9059,534.2617,616.1226,523.9987,615.9004,513.7358,616.2117,503.4729,615.1114,493.21,615.7791,482.9471,616.0616,472.6842,614.9545,462.4212,615.3468,452.1583,615.5778,441.8954,616.1255,431.6325,615.4422,421.3696,615.9285,411.1067,614.8698,400.8438,615.4466,400.7538,615.2294,400.3214,615.3641,399.57,614.7285,399.1436,614.8777,398.5142,614.5366,397.8975,614.2262,397.8115,614.1906,397.5399,613.59,397.5565,613.1087,397.0692,612.4187,397.111,611.9478,396.6771,611.2799,396.1013,611.2799,397.3202,601.7031,397.1816,592.1263,396.9323,582.5495,396.7263,572.9727,396.6771,563.3958,396.9102,563.4924,397.118,562.8881,397.2195,562.2398,397.4953,561.6637,397.6116,561.0215,397.8975,560.4496,397.9927,560.6794,398.5073,560.2552,399.0989,560.0168,399.5844,559.5222,400.2006,559.3433,400.8438,559.2292" style="stroke:#304D6D;stroke-width:1.0417;"/><polygon fill="url(#gu80nrs2191mr1)" points="599.6983,564.4375,599.6983,564.5105,602.8233,564.2936,605.9483,564.5046,609.0733,564.5763,612.1983,564.1898,615.3233,564.4375,615.2963,564.4375,615.1752,566.5208,615.1902,568.6042,615.2997,570.6875,615.0833,572.7708,615.3233,574.8542,615.3233,575.0464,612.1983,574.6353,609.0733,574.7855,605.9483,575.0041,602.8233,574.8244,599.6983,574.8542,599.722,574.8542,599.6872,572.7708,599.7603,570.6875,599.7814,568.6042,599.9017,566.5208,599.6983,564.4375" style="stroke:#304D6D;stroke-width:1.0417;"/><polygon fill="url(#gu80nrs2191mr1)" points="597.615,566.5208,597.615,566.5938,598.4483,566.377,599.2817,566.5879,600.115,566.6596,600.9483,566.2731,601.7817,566.5208,601.7547,566.5208,601.6336,566.9375,601.6485,567.3542,601.758,567.7708,601.5416,568.1875,601.7817,568.6042,601.7817,568.7964,600.9483,568.3853,600.115,568.5355,599.2817,568.7541,598.4483,568.5744,597.615,568.6042,597.6387,568.6042,597.6039,568.1875,597.677,567.7708,597.698,567.3542,597.8184,566.9375,597.615,566.5208" style="stroke:#304D6D;stroke-width:1.0417;"/><polygon fill="url(#gu80nrs2191mr1)" points="597.615,570.6875,597.615,570.7605,598.4483,570.5436,599.2817,570.7546,600.115,570.8263,600.9483,570.4398,601.7817,570.6875,601.7547,570.6875,601.6336,571.1042,601.6485,571.5208,601.758,571.9375,601.5416,572.3542,601.7817,572.7708,601.7817,572.9631,600.9483,572.552,600.115,572.7022,599.2817,572.9208,598.4483,572.741,597.615,572.7708,597.6387,572.7708,597.6039,572.3542,597.677,571.9375,597.698,571.5208,597.8184,571.1042,597.615,570.6875" style="stroke:#304D6D;stroke-width:1.0417;"/><text fill="#000000" font-family="'Verdana'" font-size="12.5" lengthAdjust="spacing" textLength="171.7712" x="417.5104" y="596.8736">Network Connections Table</text></g><!--entity api--><g class="entity" data-qualified-name="Operating System.api" data-source-line="32" id="ent0013"><polygon fill="url(#gu80nrs2191mr1)" points="166.25,732.1146,166.25,732.3335,176.3954,731.683,186.5408,732.3159,196.6862,732.5309,206.8316,731.3715,216.977,732.0336,227.1224,731.6703,237.2678,731.7151,247.4132,732.0436,257.5586,731.3944,267.704,732.6913,277.8494,731.458,287.9948,731.9086,298.1402,732.5645,308.2856,732.0252,318.431,732.1857,328.5764,732.0813,338.7218,732.3005,348.8672,732.1146,348.899,732.1913,349.5343,732.5465,350.1349,732.818,350.7252,733.0647,351.258,733.1726,351.8135,733.335,351.9622,733.3966,352.2828,734.0175,352.0703,734.4177,352.7634,735.1929,352.6947,735.6526,353.0339,736.2813,353.5899,736.2813,352.5182,745.8581,352.9625,755.4349,353.8064,765.0117,352.9831,774.5885,353.0339,784.1654,353.0676,784.1794,352.8984,784.7996,352.6792,785.3992,352.3004,785.9326,352.1497,786.5606,351.8135,787.1116,351.7374,786.928,351.262,787.4469,350.7078,787.7757,350.1048,787.9865,349.5379,788.2846,348.8672,788.332,348.8672,787.8288,338.7218,787.6527,328.5764,787.6847,318.431,788.2707,308.2856,788.1273,298.1402,789.0418,287.9948,788.1501,277.8494,787.9747,267.704,788.5698,257.5586,787.6374,247.4132,787.7913,237.2678,789.008,227.1224,788.7859,216.977,789.0971,206.8316,787.9968,196.6862,788.6645,186.5408,788.9471,176.3954,787.8399,166.25,788.332,166.2373,788.3013,165.6775,788.1284,165.1581,788.053,164.4817,787.5985,163.9544,787.5041,163.3037,787.1116,163.1261,787.0381,162.8424,786.4324,162.9771,786,162.3415,785.2486,162.4907,784.8222,162.0833,784.1654,162.2986,784.1654,161.8043,774.5885,161.7148,765.0117,162.5612,755.4349,161.7715,745.8581,162.0833,736.2813,162.2732,736.3599,162.1501,735.6185,162.7696,735.1848,162.9709,734.5778,163.1382,733.9568,163.3037,733.335,163.31,733.3501,163.9895,733.324,164.5638,733.0436,165.094,732.657,165.6964,732.4447,166.25,732.1146" style="stroke:#304D6D;stroke-width:1.0417;"/><polygon fill="url(#gu80nrs2191mr1)" points="332.2005,737.3229,332.2005,737.3959,335.3255,737.1791,338.4505,737.39,341.5755,737.4617,344.7005,737.0752,347.8255,737.3229,347.7985,737.3229,347.6774,739.4063,347.6924,741.4896,347.8019,743.5729,347.5855,745.6563,347.8255,747.7396,347.8255,747.9318,344.7005,747.5207,341.5755,747.6709,338.4505,747.8896,335.3255,747.7098,332.2005,747.7396,332.2242,747.7396,332.1894,745.6563,332.2625,743.5729,332.2836,741.4896,332.4039,739.4063,332.2005,737.3229" style="stroke:#304D6D;stroke-width:1.0417;"/><polygon fill="url(#gu80nrs2191mr1)" points="330.1172,739.4063,330.1172,739.4792,330.9505,739.2624,331.7839,739.4734,332.6172,739.545,333.4505,739.1585,334.2839,739.4063,334.2569,739.4063,334.1358,739.8229,334.1507,740.2396,334.2602,740.6563,334.0438,741.0729,334.2839,741.4896,334.2839,741.6818,333.4505,741.2707,332.6172,741.4209,331.7839,741.6396,330.9505,741.4598,330.1172,741.4896,330.1409,741.4896,330.1061,741.0729,330.1792,740.6563,330.2002,740.2396,330.3206,739.8229,330.1172,739.4063" style="stroke:#304D6D;stroke-width:1.0417;"/><polygon fill="url(#gu80nrs2191mr1)" points="330.1172,743.5729,330.1172,743.6459,330.9505,743.4291,331.7839,743.64,332.6172,743.7117,333.4505,743.3252,334.2839,743.5729,334.2569,743.5729,334.1358,743.9896,334.1507,744.4062,334.2602,744.8229,334.0438,745.2396,334.2839,745.6563,334.2839,745.8485,333.4505,745.4374,332.6172,745.5876,331.7839,745.8062,330.9505,745.6265,330.1172,745.6563,330.1409,745.6563,330.1061,745.2396,330.1792,744.8229,330.2002,744.4062,330.3206,743.9896,330.1172,743.5729" style="stroke:#304D6D;stroke-width:1.0417;"/><text fill="#000000" font-family="'Verdana'" font-size="12.5" lengthAdjust="spacing" textLength="138.8672" x="182.9167" y="769.759">System APIs / Syscalls</text></g><!--entity kernel--><g class="entity" data-qualified-name="Operating System.kernel" data-source-line="33" id="ent0014"><polygon fill="url(#gu80nrs2191mr1)" points="233.3438,876.875,233.3438,877.0939,243.946,876.4434,254.5482,877.0763,265.1505,877.2913,275.7527,876.1319,286.355,876.794,296.9572,876.4307,307.5594,876.4755,318.1617,876.804,328.7639,876.1548,339.3662,877.4517,349.9684,876.2185,360.5707,876.669,371.1729,877.3249,381.7751,876.875,381.7637,876.8475,382.3735,877.141,382.9494,877.3529,383.5666,877.6645,384.1639,877.928,384.7214,878.0954,384.9093,878.1732,385.1808,878.7738,385.4275,879.3642,385.5353,879.897,385.8464,880.514,385.9418,881.0417,386.6733,881.0417,385.1906,890.6185,386.6486,900.1953,385.633,909.7721,386.4979,919.349,385.9418,928.9258,385.783,928.86,385.6758,929.5059,385.6916,930.2028,385.1939,930.6871,384.9993,931.2968,384.7214,931.8721,384.7664,931.9807,384.1875,932.2497,383.5424,932.359,382.9918,932.6964,382.2883,932.6647,381.7751,933.0924,381.7751,933.3887,371.1729,933.6635,360.5707,933.5555,349.9684,933.731,339.3662,932.5892,328.7639,932.4131,318.1617,932.4452,307.5594,933.0311,296.9572,932.8877,286.355,933.8023,275.7527,932.9105,265.1505,932.7351,254.5482,933.3302,243.946,932.3978,233.3438,933.0924,233.2748,932.9259,232.8407,933.0565,232.2231,932.7441,231.6736,932.5958,230.944,932.0129,230.3975,931.8721,230.4999,931.9145,230.3428,931.3613,229.7578,930.6308,229.6345,930.0916,229.4616,929.5318,229.1771,928.9258,229.856,928.9258,229.1727,919.349,229.6589,909.7721,228.6002,900.1953,228.4716,890.6185,229.1771,881.0417,229.3386,881.1086,229.1912,880.3571,229.8285,879.9308,229.9756,879.3014,230.0674,878.649,230.3975,878.0954,230.3505,877.9819,231.0477,877.9985,231.5362,877.5112,232.2439,877.553,232.681,876.9418,233.3438,876.875" style="stroke:#304D6D;stroke-width:1.0417;"/><polygon fill="url(#gu80nrs2191mr1)" points="365.1085,882.0833,365.1085,882.1563,368.2335,881.9395,371.3585,882.1504,374.4835,882.2221,377.6085,881.8356,380.7335,882.0833,380.7065,882.0833,380.5854,884.1667,380.6003,886.25,380.7098,888.3333,380.4934,890.4167,380.7335,892.5,380.7335,892.6922,377.6085,892.2812,374.4835,892.4313,371.3585,892.65,368.2335,892.4702,365.1085,892.5,365.1322,892.5,365.0974,890.4167,365.1705,888.3333,365.1915,886.25,365.3118,884.1667,365.1085,882.0833" style="stroke:#304D6D;stroke-width:1.0417;"/><polygon fill="url(#gu80nrs2191mr1)" points="363.0251,884.1667,363.0251,884.2396,363.8585,884.0228,364.6918,884.2338,365.5251,884.3054,366.3585,883.919,367.1918,884.1667,367.1648,884.1667,367.0437,884.5833,367.0587,885,367.1681,885.4167,366.9518,885.8333,367.1918,886.25,367.1918,886.4422,366.3585,886.0312,365.5251,886.1813,364.6918,886.4,363.8585,886.2202,363.0251,886.25,363.0488,886.25,363.0141,885.8333,363.0871,885.4167,363.1082,885,363.2285,884.5833,363.0251,884.1667" style="stroke:#304D6D;stroke-width:1.0417;"/><polygon fill="url(#gu80nrs2191mr1)" points="363.0251,888.3333,363.0251,888.4063,363.8585,888.1895,364.6918,888.4004,365.5251,888.4721,366.3585,888.0856,367.1918,888.3333,367.1648,888.3333,367.0437,888.75,367.0587,889.1667,367.1681,889.5833,366.9518,890,367.1918,890.4167,367.1918,890.6089,366.3585,890.1978,365.5251,890.348,364.6918,890.5666,363.8585,890.3869,363.0251,890.4167,363.0488,890.4167,363.0141,890,363.0871,889.5833,363.1082,889.1667,363.2285,888.75,363.0251,888.3333" style="stroke:#304D6D;stroke-width:1.0417;"/><text fill="#000000" font-family="'Verdana'" font-size="12.5" lengthAdjust="spacing" textLength="104.6814" x="250.0104" y="914.5194">Kernel / Artifacts</text></g><g class="entity" data-qualified-name="GMN30" data-source-line="56" id="ent0031"><path d="M336.7083,222.9375 L336.9029,222.9375 L336.3247,229.175 L336.8873,235.4125 L337.0784,241.65 L336.0478,247.8875 L336.7083,254.125 L336.7002,254.0535 L329.3097,254.5659 L321.96,255.4388 L314.6387,256.5623 L307.2196,256.8222 L299.9375,258.2917 L299.9952,258.801 L307.226,258.5451 L314.6252,259.7764 L322.045,261.1891 L329.3452,261.5461 L336.7083,262.4583 L336.7715,262.4583 L336.6788,268.6948 L336.8736,274.9313 L336.9298,281.1677 L337.2506,287.4042 L336.7083,293.6406 L340.875,297.8073 L340.875,299.6713 L351.2938,299.6941 L361.7127,298.5146 L372.1315,299.095 L382.5503,299.7579 L392.9691,295.804 L403.388,299.692 L413.8068,296.9837 L424.2256,299.2901 L434.6445,296.4322 L445.0633,297.617 L455.4821,299.8673 L465.9009,297.6719 L476.3198,298.0998 L486.7386,298.7479 L497.1574,298.9635 L507.5763,297.8073 L511.7429,293.6406 L511.7321,293.6406 L512.5407,282.8984 L510.1529,272.1563 L512.5329,261.4141 L513.2657,250.6719 L512.9777,239.9297 L511.7429,229.1875 L512.1443,229.5889 L509.3433,226.7879 L507.1493,224.5938 L505.0861,222.5307 L503.371,220.8156 L501.3263,218.7708 L501.3263,218.2249 L490.6295,220.6636 L479.9328,218.2856 L469.236,217.8179 L458.5393,219.4049 L447.8425,216.9185 L437.1458,217.3288 L426.449,220.5735 L415.7523,219.981 L405.0555,220.8111 L394.3588,217.877 L383.662,219.6575 L372.9653,220.4109 L362.2685,217.4586 L351.5718,218.5046 L340.875,218.7708 L336.7083,222.9375" fill="url(#gu80nrs2191mr2)" style="stroke:#246BAA;stroke-width:1.0417;"/><path d="M501.3263,218.7708 L501.5209,218.7708 L500.9426,220.4375 L501.5052,222.1042 L501.6963,223.7708 L500.6657,225.4375 L501.3263,227.1042 L503.4096,229.1875 L503.4096,229.1155 L505.0763,228.7926 L506.7429,228.8324 L508.4096,229.1244 L510.0763,228.5473 L511.7429,229.1875 L512.1054,229.55 L509.2469,226.6915 L507.4468,224.8913 L505.7757,223.2203 L503.3534,220.798 L501.3263,218.7708" fill="url(#gu80nrs2191mr2)" style="stroke:#246BAA;stroke-width:1.0417;"/><text fill="#000000" font-family="'Verdana'" font-size="12.5" lengthAdjust="spacing" textLength="129.8218" x="348.1667" y="240.7903">Osquery uses SQLite</text><text fill="#000000" font-family="'Verdana'" font-size="12.5" lengthAdjust="spacing" textLength="142.7429" x="348.1667" y="255.3411">but doesn't store data.</text><text fill="#000000" font-family="'Verdana'" font-size="12.5" lengthAdjust="spacing" textLength="132.5745" x="348.1667" y="269.8918">It queries the system</text><text fill="#000000" font-family="'Verdana'" font-size="12.5" lengthAdjust="spacing" textLength="76.0559" x="348.1667" y="284.4426">in real-time.</text></g><!--link shell to sql--><g class="link" data-entity-1="ent0003" data-entity-2="ent0006" data-link-type="dependency" data-source-line="36" id="lnk15"><path d="M68.7396,113.8958 L68.7843,113.9823 L66.4917,114.8417 L64.4611,116.2079 L62.3453,117.4091 L59.9489,118.0676 L57.9408,119.4772 L57.9217,119.4468 L55.8929,120.529 L53.9605,121.7649 L52.0952,123.1076 L49.9989,124.0823 L48.2261,125.5724 L48.4006,125.7601 L45.0756,128.1044 L42.2603,130.9967 L39.5071,133.9559 L36.3921,136.526 L33.4674,139.3008 L33.4969,139.3123 L32.2203,142.4501 L31.0777,145.6402 L29.8705,148.8051 L28.7865,152.0181 L27.3006,155.0741 L27.5986,155.1621 L28.6546,158.7254 L29.5184,162.232 L30.6636,165.8217 L31.8219,169.4153 L32.5625,172.8854 L32.2898,172.6928 L34.3936,175.2953 L35.5994,177.2636 L37.4878,179.714 L38.6733,181.6679 L40.435,184.0288 L40.4111,184.0079 L42.4318,186.2474 L43.894,187.9998 L45.6858,190.0397 L47.5052,192.1036 L49.1251,193.9935 L49.2571,194.1339 L51.0144,195.7692 L52.9972,197.6444 L54.6151,199.1314 L56.7773,201.1975 L58.5777,202.8786 L58.7335,203.0789 L60.7361,204.6219 L62.816,206.2643 L64.5364,207.4446 L66.5203,208.9637 L68.7378,210.7829 L68.5811,210.5416 L70.8854,212.1645 L73.0132,213.5155 L75.397,215.2609 L77.3436,216.333 L79.5501,217.8053 L79.4739,217.666 L81.8828,219.146 L83.9659,220.0303 L86.2806,221.3382 L88.822,223.0606 L90.9598,224.0449 L91.0448,224.2278 L93.4935,225.4643 L95.6777,226.132 L98.1932,227.5122 L100.6365,228.7372 L102.9116,229.6004 L102.8305,229.3973 L105.3829,230.5533 L107.9088,231.6428 L110.4869,232.8629 L112.862,233.575 L115.3505,234.5709" fill="none" style="stroke:#4285F4;stroke-width:3.125;"/><polygon fill="#4285F4" points="121.2083,236.75,121.2594,236.8022,119.6409,235.2124,118.3217,233.9284,116.905,232.5449,115.1679,230.8339,113.8743,229.5762,113.8498,229.5649,114.2302,230.5861,114.7342,231.6639,115.3243,232.7811,115.618,233.7626,116.3268,234.9341,116.4068,235.1089,115.1641,235.2256,114.1551,235.8527,113.1745,236.542,112.0281,236.869,110.9689,237.3866,110.9703,237.4103,113.0161,237.2482,115.0685,237.1938,117.1177,237.0875,119.1731,237.0803,121.2083,236.75" style="stroke:#4285F4;stroke-width:3.125;"/><text fill="#000000" font-family="'Verdana'" font-size="12.5" lengthAdjust="spacing" textLength="121.0449" x="38.8125" y="164.6965">Execute SQL Query</text></g><!--link sql to shell--><g class="link" data-entity-1="ent0006" data-entity-2="ent0003" data-link-type="dependency" data-source-line="53" id="lnk29"><path d="M202.3438,229.875 L202.623,229.9602 L198.7431,219.7061 L196.5001,209.9513 L193.7241,200.0339 L189.1952,189.5818 L186.9895,179.8384 L183.476,169.696 L180.4829,159.7124 L177.8516,149.8392 L173.9735,139.5856 L172.5772,130.0891 L168.7915,119.8637" fill="none" style="stroke:#4285F4;stroke-width:3.125;"/><polygon fill="#4285F4" points="166.9688,113.8854,167.0412,113.8943,166.5757,115.9044,166.5348,117.9667,166.3557,120.0119,165.7218,122.0013,165.7174,124.068,165.6936,124.0554,166.1408,122.9583,166.708,121.9252,167.3587,120.9365,167.7218,119.7946,168.4877,118.8673,168.5781,119.037,169.425,119.2282,170.5357,119.9148,171.6787,120.6619,172.6343,121.0573,173.6885,121.6377,173.7064,121.6532,172.3361,120.0799,171.0474,118.5774,169.7194,117.0407,168.4664,115.5691,166.9688,113.8854" style="stroke:#4285F4;stroke-width:3.125;"/><text fill="#000000" font-family="'Verdana'" font-size="12.5" lengthAdjust="spacing" textLength="112.6343" x="190.8958" y="164.6965">Formatted Output</text></g><!--link daemon to sql--><g class="link" data-entity-1="ent0004" data-entity-2="ent0006" data-link-type="dependency" data-source-line="37" id="lnk16"><path d="M361.6146,113.7187 L361.6966,113.7711 L359.6375,116.4621 L358.0593,119.4599 L356.3245,122.3578 L354.0747,124.9272 L352.5378,127.9513 L352.5081,127.9309 L350.2723,130.8931 L348.1858,133.9581 L346.2032,137.0947 L343.8627,139.9848 L342.0234,143.2201 L342.2276,143.3751 L339.4655,146.1055 L337.2995,149.2886 L335.2061,152.5268 L332.6897,155.4438 L330.3958,158.5298 L330.4197,158.5505 L327.9013,161.3912 L325.4917,164.3261 L323.0296,167.2156 L320.6676,170.1917 L317.9792,172.8854 L318.2026,173.1013 L316.7048,174.6565 L315.063,176.0724 L313.6321,177.6922 L312.211,179.3215 L310.4768,180.6481 L310.2437,180.4091 L309.1851,182.3468 L307.3589,183.4974 L306.1163,185.2463 L304.2727,186.3791 L302.9217,188.0169 L302.9005,187.9933 L300.096,191.0148 L296.7966,193.4849 L293.7893,196.2804 L290.8065,199.1031 L287.6467,201.7289 L287.7683,201.8784 L284.5445,204.2484 L281.5285,206.8739 L278.1763,209.086 L275.3255,211.9147 L272.1414,214.3334 L272.2936,214.5365 L269.115,216.8599 L266.0121,219.2842 L262.5578,221.24 L259.3611,223.5392 L256.3925,226.1426" fill="none" style="stroke:#4285F4;stroke-width:3.125;"/><polygon fill="#4285F4" points="251.3333,229.8125,251.3485,229.8839,253.3105,229.2454,255.3614,229.0253,257.3833,228.669,259.3101,227.8646,261.3686,227.6805,261.3643,227.6538,260.1814,227.349,259.0199,227.1785,257.8733,227.1014,256.6754,226.7025,255.5493,226.7543,255.7391,226.7845,255.5184,225.556,255.8519,224.4158,256.2531,223.2863,256.2608,222.0942,256.4754,220.935,256.4959,220.9469,255.4374,222.7049,254.4722,224.5171,253.462,226.3031,252.5377,228.1389,251.3333,229.8125" style="stroke:#4285F4;stroke-width:3.125;"/><text fill="#000000" font-family="'Verdana'" font-size="12.5" lengthAdjust="spacing" textLength="107.3364" x="344.0208" y="164.6965">Scheduled Query</text></g><!--link sql to registry--><g class="link" data-entity-1="ent0006" data-entity-2="ent0007" data-link-type="dependency" data-source-line="39" id="lnk17"><path d="M131.8646,286.9062 L131.9161,286.9888 L129.0741,288.4197 L126.5339,290.3347 L123.8954,292.092 L120.9337,293.3309 L118.4194,295.2874 L118.3973,295.2591 L115.7936,297.0841 L113.3014,299.0522 L110.8867,301.1198 L108.2048,302.8446 L105.8971,305.0495 L106.0795,305.2295 L103.4729,307.0899 L101.3988,309.4759 L99.3897,311.9261 L97.0026,314.0031 L94.8143,316.2764 L94.84,316.2947 L92.9769,318.8229 L91.2308,321.4347 L89.4283,324.0062 L87.7335,326.6546 L85.6875,329.0521 L85.9826,329.1491 L84.8955,332.4691 L83.618,335.7266 L82.6191,339.0756 L81.6333,342.4289 L80.2337,345.6463 L79.911,345.5605 L81.2913,348.5642 L81.6089,351.2855 L82.7344,354.2214 L83.028,356.9363 L84.0034,359.8324 L83.9803,359.8107 L86.559,362.5252 L88.5972,364.7328 L90.9543,367.2395 L93.3382,369.7714 L95.5289,372.1221 L95.6374,372.2813 L97.1704,373.2393 L98.8888,374.4694 L100.3073,375.2591 L102.1731,376.7057 L103.7415,377.7156 L103.8644,377.9376 L105.7614,378.9579 L107.7194,380.0884 L109.394,380.7066 L111.2764,381.7003 L113.3428,383.0268" fill="none" style="stroke:#4285F4;stroke-width:3.125;"/><polygon fill="#4285F4" points="118.9167,385.8542,118.9733,385.9002,117.5099,384.172,116.3783,382.7137,115.1387,381.1676,113.5438,379.3322,112.4407,377.8972,112.4151,377.8888,112.6662,378.9713,113.0466,380.0961,113.5168,381.2503,113.6774,382.3033,114.2717,383.498,114.3315,383.6807,113.0836,383.6562,112.0101,384.1652,110.9578,384.7392,109.7818,384.9345,108.6709,385.329,108.6721,385.3527,110.7195,385.423,112.7724,385.601,114.8226,385.727,116.8779,385.9522,118.9167,385.8542" style="stroke:#4285F4;stroke-width:3.125;"/><text fill="#000000" font-family="'Verdana'" font-size="12.5" lengthAdjust="spacing" textLength="83.7219" x="91.9375" y="346.9049">Lookup Table</text></g><!--link registry to sql--><g class="link" data-entity-1="ent0007" data-entity-2="ent0006" data-link-type="dependency" data-source-line="52" id="lnk28"><path d="M204.6875,386.1042 L204.9791,386.118 L204.6017,375.7452 L205.9337,365.4533 L206.7091,355.135 L205.6539,344.7301 L207.0248,334.4401 L207.0299,324.0854 L207.5786,313.7564 L208.5051,303.4453 L209.0887,293.118" fill="none" style="stroke:#4285F4;stroke-width:3.125;"/><polygon fill="#4285F4" points="209.3854,286.875,209.4506,286.9078,208.3355,288.6437,207.6026,290.5718,206.7452,292.4373,205.4784,294.097,204.7784,296.0416,204.7602,296.0216,205.5507,295.1392,206.4327,294.3574,207.3783,293.6456,208.1047,292.6927,209.1381,292.0775,209.2804,292.2068,209.769,292.8022,210.673,293.7752,211.6276,294.7942,212.2874,295.5453,213.1023,296.4372,213.1244,296.4458,212.3486,294.5208,211.6733,292.6348,210.9496,290.73,210.3183,288.8611,209.3854,286.875" style="stroke:#4285F4;stroke-width:3.125;"/><text fill="#000000" font-family="'Verdana'" font-size="12.5" lengthAdjust="spacing" textLength="63.6841" x="212.7708" y="346.9049">Result Set</text></g><!--link registry to proc_table--><g class="link" data-entity-1="ent0007" data-entity-2="ent0009" data-link-type="dependency" data-source-line="40" id="lnk18"><path d="M194.1042,443.0313 L194.1996,443.0504 L193.3557,445.7915 L193.0711,448.6447 L192.6044,451.4614 L191.5388,454.1582 L191.3022,457.021 L191.2664,457.0178 L190.8391,460.0189 L190.5925,463.036 L190.4715,466.0642 L189.9177,469.0542 L189.9701,472.0977 L190.2258,472.114 L189.8737,475.1331 L190.2685,478.1998 L190.7543,481.2724 L190.71,484.3111 L190.9445,487.3677 L190.9749,487.3763 L191.7539,490.2776 L192.6712,493.2181 L193.5218,496.1397 L194.4998,499.0973 L195.0625,501.9375 L195.3385,502.08 L196.9813,505.257 L198.4461,508.3421 L200.1715,511.5617 L201.9091,514.7877 L203.2596,517.8138 L202.9882,517.6193 L205.4861,520.7479 L207.0902,523.2362 L209.3738,526.2113 L210.9577,528.6851 L213.1152,531.5698 L213.092,531.5481 L215.6494,534.2446 L217.6659,536.4349 L220.0016,538.9239 L222.364,541.4379 L224.5332,543.7711 L224.6597,543.9164 L227.1089,546.0121 L229.7743,548.3563 L232.09,550.2985 L234.9273,552.8402 L237.4178,554.9833" fill="none" style="stroke:#4285F4;stroke-width:3.125;"/><polygon fill="#4285F4" points="242.2917,558.8958,242.3565,558.9293,241.2233,557.0063,240.4703,555.2794,239.5935,553.4886,238.3096,551.4879,237.5892,549.7778,237.5624,549.7748,237.5702,550.9332,237.7132,552.1063,237.9502,553.2898,237.8633,554.4378,238.2301,555.6354,238.251,555.8265,237.0348,555.546,235.8796,555.8235,234.7319,556.169,233.5408,556.1185,232.3725,556.2763,232.3786,556.2992,234.3535,556.7895,236.356,557.384,238.3452,557.9283,240.3598,558.5685,242.2917,558.8958" style="stroke:#4285F4;stroke-width:3.125;"/><text fill="#000000" font-family="'Verdana'" font-size="12.5" lengthAdjust="spacing" textLength="126.3489" x="201.3125" y="493.7486">Call implementation</text></g><!--link proc_table to registry--><g class="link" data-entity-1="ent0009" data-entity-2="ent0007" data-link-type="dependency" data-source-line="51" id="lnk27"><path d="M312.7188,559.0208 L312.7926,559.0842 L314.1293,557.0844 L315.8988,555.4563 L317.5273,553.7071 L318.6925,551.5599 L320.4991,549.9636 L320.4704,549.942 L321.8178,547.8791 L323.3102,545.925 L324.9034,544.0467 L326.1492,541.9074 L327.8817,540.1336 L328.0989,540.2697 L328.9383,537.8973 L330.4119,535.9223 L331.9628,533.9956 L333.0636,531.787 L334.4012,529.7267 L334.4297,529.7404 L335.4261,527.5627 L336.5522,525.4474 L337.6157,523.302 L338.7985,521.214 L339.5924,518.9388 L339.8892,519.0307 L340.5724,516.8372 L341.0642,514.5845 L341.8362,512.4185 L342.6213,510.2566 L342.9903,507.9658 L342.6582,507.9313 L343.5305,505.8059 L343.3094,503.5668 L343.9196,501.4141 L343.6736,499.1725 L344.1294,497.0037 L344.098,496.9991 L344.1521,494.9027 L343.4732,492.6983 L343.2268,490.5577 L343.0167,488.4223 L342.5447,486.2484 L342.7196,486.3291 L341.5883,484.1772 L340.7559,482.1631 L339.4397,479.9259 L338.8452,478.0215 L337.7708,475.8958 L337.977,476.0439 L336.4721,473.9754 L335.0695,471.9803 L333.1914,469.6437 L331.6619,467.5575 L330.4412,465.6931 L330.231,465.4968 L328.8657,464.0086 L327.2634,462.2992 L326.0049,460.9107 L324.1595,458.9743 L322.663,457.3636 L322.5643,457.2392 L320.9402,456.0278 L318.8942,454.2845 L317.1483,452.9194 L315.6959,451.9245 L313.7207,450.2705 L313.8245,450.4434 L311.7313,449.2633 L309.3153,447.5452 L307.3037,446.5009 L305.2039,445.3099 L302.8989,443.7767" fill="none" style="stroke:#4285F4;stroke-width:3.125;"/><polygon fill="#4285F4" points="297.3854,440.8333,297.443,440.8782,298.5336,442.363,299.9615,444.1109,301.2797,445.7731,302.2365,447.1537,303.6934,448.9241,303.6676,448.9163,303.209,447.7535,302.8806,446.6302,302.6427,445.5345,302.093,444.344,301.98,443.2862,302.0359,443.4701,303.044,442.7341,304.2152,442.5351,305.4064,442.4016,306.4817,441.887,307.618,441.5728,307.6197,441.5964,305.5707,441.4138,303.5294,441.3388,301.4844,441.2119,299.4466,441.1841,297.3854,440.8333" style="stroke:#4285F4;stroke-width:3.125;"/><text fill="#000000" font-family="'Verdana'" font-size="12.5" lengthAdjust="spacing" textLength="76.2268" x="350.2708" y="493.7486">Row Results</text></g><!--link registry to user_table--><g class="link" data-entity-1="ent0007" data-entity-2="ent0010" data-link-type="dependency" data-source-line="41" id="lnk19"><path d="M188.1667,442.9375 L188.4219,443.0792 L182.5517,451.8687 L178.1778,461.4886 L173.3166,470.8382 L166.8531,479.2984 L162.5133,488.9372 L156.978,497.9126 L151.9184,507.152 L147.1895,516.575 L141.3209,525.3653 L137.721,535.4149 L131.1715,543.8274 L126.8251,553.4626" fill="none" style="stroke:#4285F4;stroke-width:3.125;"/><polygon fill="#4285F4" points="123.7917,558.9271,123.8356,558.9854,125.3437,557.5773,127.1093,556.5109,128.7911,555.3332,130.1971,553.7897,131.9848,552.7526,131.9774,552.7267,130.811,552.9344,129.6821,553.2729,128.5791,553.7023,127.3866,553.8184,126.3195,554.3733,126.5044,554.4262,125.785,553.1801,125.6052,552.0883,125.4913,551.0154,124.9943,549.8329,124.6988,548.708,124.7224,548.7101,124.5064,550.7509,124.3977,552.8011,124.2372,554.8468,124.1757,556.9013,123.7917,558.9271" style="stroke:#4285F4;stroke-width:3.125;"/></g><!--link registry to net_table--><g class="link" data-entity-1="ent0007" data-entity-2="ent0011" data-link-type="dependency" data-source-line="42" id="lnk20"><path d="M297.3021,422.7083 L297.3191,422.8041 L300.8512,423.1568 L304.4831,424.071 L308.0825,424.8024 L311.5749,424.9323 L315.2154,425.8948 L315.2078,425.8596 L318.8632,426.5008 L322.557,427.3191 L326.2775,428.2608 L329.9061,428.7777 L333.6634,429.8895 L333.7282,430.1375 L337.3337,430.5858 L341.1284,431.7583 L344.9463,433.019 L348.6297,433.7658 L352.3839,434.7829 L352.3933,434.813 L356.1256,435.9452 L359.9009,437.2147 L363.6555,438.418 L367.4497,439.7476 L371.1146,440.6654 L371.2241,440.9561 L374.9212,442.3521 L378.5476,443.5605 L382.2775,445.0435 L386.0122,446.5393 L389.5933,447.6275 L389.4557,447.3233 L393.3158,449.5401 L396.7226,450.7553 L400.474,452.7319 L403.8705,453.9244 L407.5579,455.7596 L407.5427,455.7318 L411.1602,457.9394 L414.4224,459.4969 L417.8943,461.438 L421.3837,463.4113 L424.7462,465.1522 L424.8529,465.3127 L427.9751,467.2995 L431.2797,469.5604 L434.2892,471.3778 L437.7388,473.8567 L440.8958,475.8958 L441.0567,476.0921 L443.0499,477.7136 L445.123,479.4324 L446.825,480.6985 L448.7991,482.2965 L451.0141,484.1886 L450.811,483.9848 L452.8106,485.9796 L454.5813,487.7449 L456.6839,489.8431 L458.2198,491.3728 L460.0926,493.2405 L459.9711,493.1382 L461.7944,495.2338 L463.0983,496.8922 L464.7716,498.8615 L466.8062,501.1351 L468.1973,502.8669 L468.3611,502.9846 L469.9128,505.0685 L470.9551,506.7864 L472.6355,508.9628 L474.1768,511.0393 L475.3942,512.8831 L475.2085,512.7676 L476.6276,514.9039 L477.9858,517.0024 L479.4635,519.1751 L480.4767,521.059 L481.7493,523.1043 L481.9374,523.2068 L482.6401,525.03 L483.7057,527.051 L485.3017,529.3608 L485.9213,531.1389 L487.3287,533.346 L487.5408,533.4485 L488.3887,535.403 L489.1648,537.3229 L490.1029,539.3211 L491.4155,541.5002 L492.1982,543.4233 L492.0711,543.3681 L493.2946,545.4781 L493.6537,547.2126 L494.9958,549.3741 L495.7844,551.2952 L496.4239,553.1515" fill="none" style="stroke:#4285F4;stroke-width:3.125;"/><polygon fill="#4285F4" points="498.8125,558.9271,498.8855,558.929,498.7222,556.8722,498.9865,554.8265,499.1117,552.7773,498.7788,550.716,499.0799,548.6713,499.055,548.661,498.4915,549.7032,498.0537,550.7974,497.7033,551.9279,497.0518,552.9336,496.822,554.1141,496.8956,554.2917,495.6495,553.4604,494.6185,553.1475,493.6138,552.8979,492.4563,552.2803,491.3792,551.8562,491.3955,551.8734,492.8582,553.2623,494.3952,554.7295,495.8964,556.1589,497.466,557.6603,498.8125,558.9271" style="stroke:#4285F4;stroke-width:3.125;"/></g><!--link proc_table to api--><g class="link" data-entity-1="ent0009" data-entity-2="ent0013" data-link-type="dependency" data-source-line="44" id="lnk21"><path d="M305.3958,615.6354 L305.4806,615.6831 L306.7484,618.2423 L308.5133,621.0812 L310.1163,623.8291 L311.1869,626.2774 L312.9945,629.1403 L312.9609,629.1273 L313.9546,632.0338 L315.1175,635.0057 L316.398,638.0229 L317.2732,640.8836 L318.7161,643.9635 L318.9693,644.004 L318.9216,647.0087 L319.6128,650.1315 L320.3943,653.2687 L320.6511,656.3221 L321.1839,659.4196 L321.2152,659.424 L320.7367,662.4982 L320.4005,665.5924 L319.9957,668.677 L319.722,671.78 L319.0208,674.8229 L319.3103,674.9358 L318.1497,677.9223 L316.8024,680.836 L315.7284,683.8563 L314.6672,686.8816 L313.2001,689.7487 L312.9051,689.5923 L312.0658,692.5601 L310.2551,695.0131 L309.1829,697.8574 L307.3501,700.2988 L306.1407,703.0704 L306.1144,703.0527 L304.7789,705.7082 L302.8287,707.9498 L301.2412,710.4356 L299.6842,712.942 L297.9075,715.3004 L298.0578,715.421 L296.0377,717.6293 L294.2744,720.0437 L292.0954,722.1248 L290.5365,724.703 L288.5653,726.9507" fill="none" style="stroke:#4285F4;stroke-width:3.125;"/><polygon fill="#4285F4" points="284.5,731.6979,284.5314,731.7638,286.2907,730.6859,288.234,729.9943,290.1173,729.1769,291.8037,727.9458,293.7628,727.2874,293.7607,727.2605,292.5763,727.2306,291.4025,727.3364,290.2359,727.5365,289.0443,727.4117,287.8878,727.7419,288.0794,727.7568,287.5787,726.5501,287.6375,725.3866,287.7646,724.2285,287.4944,723.0396,287.4332,721.8669,287.4559,721.8737,286.8359,723.83,286.3193,725.8171,285.7529,727.7893,285.2815,729.7899,284.5,731.6979" style="stroke:#4285F4;stroke-width:3.125;"/><text fill="#000000" font-family="'Verdana'" font-size="12.5" lengthAdjust="spacing" textLength="125.6348" x="327.3542" y="666.634">Query System State</text></g><!--link api to proc_table--><g class="link" data-entity-1="ent0013" data-entity-2="ent0009" data-link-type="dependency" data-source-line="50" id="lnk26"><path d="M199.8542,731.7083 L199.9049,731.7914 L196.9657,729.8405 L194.324,728.3764 L191.5854,726.7539 L188.5283,724.61 L185.9121,723.1877 L185.8914,723.1583 L183.1526,721.1653 L180.5182,719.3207 L177.9564,717.5793 L175.1445,715.4824 L172.6828,713.8833 L172.8482,714.0791 L170.1374,711.6684 L167.9096,709.8294 L165.7407,708.0601 L163.229,705.885 L160.8976,703.9234 L160.9209,703.9447 L158.9647,701.8159 L157.1146,699.7843 L155.2133,697.7059 L153.4096,695.7168 L151.2878,693.4362 L151.5523,693.5991 L150.2149,691.4239 L148.7069,689.1436 L147.4487,687.0171 L146.2021,684.8978 L144.5847,682.5501 L144.2627,682.4617 L144.2746,680.402 L143.2263,678.0511 L142.984,675.9215 L141.9117,673.564 L141.5197,671.3934 L141.4882,671.3898 L142.1216,669.173 L142.019,666.8712 L142.3508,664.6196 L142.7189,662.3721 L142.8241,660.0943 L142.9918,660.1893 L144.1035,657.8308 L145.5018,655.6346 L146.4365,653.1759 L148.0627,651.1087 L149.2292,648.7813 L149.3216,649.0176 L152.944,647.5489 L156.6123,646.1976 L160.0672,644.3011 L163.6785,642.8042 L167.4284,641.6615 L167.4068,641.3746 L169.5114,641.7909 L171.5917,641.8839 L173.7072,642.4458 L175.7626,642.2071 L177.8537,642.4443 L177.8276,642.2877 L180.2711,642.1493 L182.6032,641.3412 L185.0145,641.0094 L187.5034,641.1436 L189.8542,640.4479 L189.928,640.6356 L192.4164,639.8056 L194.6753,638.3918 L197.2217,637.7093 L199.7055,636.8674 L202.0433,635.6543 L201.954,635.4546 L204.2511,634.618 L206.5189,633.716 L208.8442,632.9424 L210.9461,631.6694 L213.1727,630.6755 L213.2693,630.8666 L215.2163,629.3563 L217.3496,628.215 L219.7551,627.6127 L221.6595,626.018 L223.9682,625.224 L224.0826,625.43 L226.2521,624.0653 L228.3828,622.6309 L230.601,621.3538 L233.021,620.4404 L235.1554,619.0124" fill="none" style="stroke:#4285F4;stroke-width:3.125;"/><polygon fill="#4285F4" points="240.5729,615.8958,240.5805,615.9684,238.5172,615.9654,236.4983,616.3878,234.4649,616.6717,232.3841,616.5,230.3689,616.959,230.3619,616.9329,231.4682,617.1228,232.61,617.444,233.7764,617.8565,234.8579,617.9544,236.0583,618.4929,236.2439,618.543,235.5402,619.5739,235.3784,620.7508,235.2827,621.9456,234.8023,623.0367,234.5243,624.1823,234.5434,624.1963,235.7251,622.5185,236.9938,620.9043,238.2205,619.2594,239.5275,617.673,240.5729,615.8958" style="stroke:#4285F4;stroke-width:3.125;"/><text fill="#000000" font-family="'Verdana'" font-size="12.5" lengthAdjust="spacing" textLength="149.646" x="155.4792" y="666.634">Formatted System Data</text></g><!--link user_table to api--><g class="link" data-entity-1="ent0010" data-entity-2="ent0013" data-link-type="dependency" data-source-line="45" id="lnk22"><path d="M111.2396,615.8229 L111.3351,615.8414 L111.6098,618.6744 L112.4445,621.6157 L113.0968,624.5217 L113.1494,627.3118 L114.0322,630.2624 L113.9976,630.2527 L114.697,633.2841 L115.5712,636.364 L116.5669,639.4777 L117.1439,642.4751 L118.3073,645.6354 L118.5454,645.7304 L119.2507,648.5706 L120.651,651.6882 L122.1362,654.8396 L123.128,657.7941 L124.3792,660.8522 L124.4065,660.8682 L126.0031,663.6389 L127.7239,666.4823 L129.3847,669.2906 L131.1598,672.1658 L132.5625,674.8229 L132.8088,675.0123 L134.1294,676.7286 L135.2911,678.3228 L136.6853,680.0958 L138.0905,681.8771 L139.1503,683.393 L138.899,683.1731 L140.7701,685.1807 L141.8138,686.4643 L143.4865,688.2983 L144.5114,689.5655 L146.0673,691.2972 L146.0454,691.2743 L149.2653,694.363 L151.9744,696.9149 L154.9849,699.7835 L158.0207,702.6788 L160.874,705.3822 L160.9907,705.5355 L164.0885,707.8294 L167.3858,710.3852 L170.3603,712.5172 L173.8163,715.2815 L176.9521,717.6253 L177.0877,717.8399 L180.5259,719.9891 L184.0315,722.2448 L187.2242,724.0057 L190.6462,726.1293 L194.2714,728.5743" fill="none" style="stroke:#4285F4;stroke-width:3.125;"/><polygon fill="#4285F4" points="199.6667,731.7292,199.7259,731.7718,198.3519,729.9793,197.3253,728.4367,196.1855,726.8127,194.6738,724.9212,193.677,723.4,193.6509,723.3931,193.8325,724.5025,194.1456,725.6463,194.5503,726.814,194.6397,727.8992,195.1706,729.1001,195.2193,729.286,193.9751,729.1871,192.8731,729.6311,191.7885,730.1413,190.6029,730.2662,189.4705,730.5937,189.4731,730.6172,191.5085,730.8098,193.5558,731.1095,195.5974,731.3575,197.6499,731.7042,199.6667,731.7292" style="stroke:#4285F4;stroke-width:3.125;"/></g><!--link net_table to api--><g class="link" data-entity-1="ent0011" data-entity-2="ent0013" data-link-type="dependency" data-source-line="46" id="lnk23"><path d="M501.1771,615.7292 L501.2681,615.7635 L499.8714,618.6463 L499.0083,621.7305 L497.9715,624.7491 L496.3631,627.552 L495.5459,630.6535 L495.5134,630.638 L493.8715,633.7079 L492.3933,636.8558 L491.0289,640.058 L489.2723,643.0732 L488.0651,646.3503 L488.2824,646.4862 L485.9208,649.2274 L484.1936,652.3656 L482.5438,655.5521 L480.4437,658.4569 L478.5804,661.5099 L478.6042,661.5307 L476.2407,664.1628 L473.9855,666.8895 L471.678,669.5706 L469.4702,672.3388 L466.9375,674.8229 L467.1416,675.0571 L464.7322,677.1623 L462.1912,679.1164 L459.8428,681.2916 L457.5035,683.4772 L454.878,685.3344 L454.6765,685.0682 L452.5583,687.4838 L449.7767,689.0227 L447.4994,691.2281 L444.7028,692.7471 L442.3318,694.8288 L442.3144,694.8023 L439.9234,696.827 L437.1247,698.233 L434.5665,700.004 L432.0286,701.8058 L429.345,703.3864 L429.4411,703.5534 L426.6678,704.9251 L424.0587,706.5821 L421.1839,707.7775 L418.7054,709.6615 L415.9635,711.0877 L416.0778,711.3143 L413.3101,712.6565 L410.5992,714.1113 L407.6246,715.0433 L404.8434,716.3585 L402.2333,718.0131 L402.1166,717.7502 L399.4157,719.2342 L396.5833,720.422 L393.9417,722.0395 L390.9743,722.9232 L388.2005,724.2431 L388.1425,724.0953 L385.3813,725.4645 L382.3719,726.2018 L379.539,727.3884 L376.8789,729.0147 L373.9112,729.8581 L373.9779,730.0484 L371.1237,731.195 L368.062,731.7496 L365.2601,733.0457 L362.4017,734.1803 L359.4113,734.9384" fill="none" style="stroke:#4285F4;stroke-width:3.125;"/><polygon fill="#4285F4" points="353.4792,736.9063,353.4863,736.9789,355.5071,736.9637,357.5698,737.3742,359.6188,737.6462,361.623,737.4621,363.6892,737.9092,363.6771,737.8851,362.5695,737.2483,361.5229,736.7331,360.5186,736.3024,359.3683,735.5804,358.4226,735.2664,358.5944,735.3526,358.7556,734.1149,359.4184,733.1289,360.1424,732.1737,360.5103,731.0397,361.0655,729.9997,361.0814,730.0173,359.5407,731.3728,358.0727,732.8082,356.5696,734.205,355.1333,735.6753,353.4792,736.9063" style="stroke:#4285F4;stroke-width:3.125;"/></g><!--link api to kernel--><g class="link" data-entity-1="ent0013" data-entity-2="ent0014" data-link-type="dependency" data-source-line="48" id="lnk24"><path d="M210.7813,788.5625 L210.8453,788.6358 L207.7512,790.9569 L205.0325,793.7074 L202.1916,796.3181 L198.9486,798.4689 L196.2622,801.2563 L196.2336,801.2346 L193.9689,803.9505 L191.8487,806.7761 L189.829,809.678 L187.4631,812.3171 L185.582,815.3242 L185.8281,815.3959 L184.4311,818.2332 L183.7525,821.2797 L183.1616,824.3517 L182.0607,827.2752 L181.228,830.2769 L181.2584,830.2857 L182.1057,833.3424 L183.0912,836.4392 L184.01,839.5166 L185.056,842.631 L185.6875,845.625 L185.9402,845.8057 L187.4904,847.9723 L188.8775,850.0224 L190.5033,852.2431 L192.1402,854.4718 L193.4228,856.4471 L193.1819,856.216 L195.3341,858.4203 L196.693,859.8634 L198.655,861.8852 L199.996,863.311 L201.8459,865.2253 L201.8268,865.2001 L203.997,866.9722 L205.7195,868.1538 L207.7062,869.6839 L209.7151,871.2432 L211.564,872.5914 L211.659,872.7591 L213.8871,873.907 L216.2776,875.3415 L218.4054,876.3124 L220.925,877.9746 L223.1841,879.1772" fill="none" style="stroke:#4285F4;stroke-width:3.125;"/><polygon fill="#4285F4" points="228.7708,881.9792,228.8272,882.0255,227.3572,880.3024,226.2178,878.8508,224.9708,877.3108,223.3697,875.48,222.2587,874.0518,222.233,874.0433,222.4894,875.1236,222.8749,876.2468,223.3501,877.3998,223.5161,878.4501,224.1152,879.6442,224.1758,879.8267,222.9278,879.8078,221.8566,880.3217,220.807,880.9005,219.6319,881.1012,218.5228,881.5008,218.5239,881.5245,220.5719,881.5854,222.6249,881.7541,224.6755,881.8708,226.7307,882.0866,228.7708,881.9792" style="stroke:#4285F4;stroke-width:3.125;"/><text fill="#000000" font-family="'Verdana'" font-size="12.5" lengthAdjust="spacing" textLength="141.8884" x="191.9375" y="837.4361">Access Hardware/Data</text></g><!--link kernel to api--><g class="link" data-entity-1="ent0014" data-entity-2="ent0013" data-link-type="dependency" data-source-line="49" id="lnk25"><path d="M332.1667,876.4479 L332.2495,876.499 L333.6527,873.676 L335.5413,871.1526 L337.2719,868.5317 L338.4826,865.5898 L340.4129,863.0921 L340.3796,863.0787 L341.3933,860.1311 L342.5753,857.2514 L343.8742,854.4188 L344.7701,851.4238 L346.2305,848.6563 L346.485,848.6864 L346.2905,845.6707 L346.8392,842.743 L347.4786,839.8261 L347.5904,836.8466 L347.9797,833.9001 L348.0101,833.9085 L347.1736,831.0328 L346.4758,828.1954 L345.7111,825.3395 L345.0739,822.5189 L344.0208,819.5833 L344.2806,819.7537 L342.2811,816.7028 L340.114,813.5419 L338.1922,810.5419 L336.2818,807.5495 L334.0073,804.3181 L333.7861,804.068 L331.4736,802.1285 L328.4328,799.3654 L325.9457,797.2284 L322.8883,794.4467 L320.2984,792.1935" fill="none" style="stroke:#4285F4;stroke-width:3.125;"/><polygon fill="#4285F4" points="315.2188,788.5521,315.2817,788.589,316.133,790.249,317.3534,792.1255,318.4536,793.9314,319.1586,795.5055,320.4106,797.4006,320.384,797.3962,320.0727,796.2137,319.8957,795.0533,319.812,793.9083,319.4067,792.7103,319.4518,791.5866,319.4831,791.7763,320.579,791.1789,321.7662,791.1353,322.9646,791.1593,324.0982,790.7901,325.2658,790.6278,325.2706,790.651,323.2541,790.2018,321.2595,789.8582,319.2544,789.4637,317.2693,789.1664,315.2188,788.5521" style="stroke:#4285F4;stroke-width:3.125;"/><text fill="#000000" font-family="'Verdana'" font-size="12.5" lengthAdjust="spacing" textLength="106.6223" x="353.3958" y="837.4361">Return Raw Data</text></g><g class="footer" data-source-line="62"><text fill="#000000" font-family="'Verdana'" font-size="10.4167" lengthAdjust="spacing" textLength="126.063" x="256.8956" y="987.5544">Co-authored by kiquetal</text></g><?plantuml-src ZLHDRnCn4BtxLqpBWN98Yr2H2WUaq0zHKK6R01U4q6HtDh7MiRVsc3H2_7V6tjrabqDfBbdFUtupyyRs0QzeJH0QBCZWGXsuXhMpi49RRhnc9Wli8oaLQcqRzBY61HRrqhjeotDdd8TdrLdrfi81uu8gZ8QldEMEyZB_1XIcXqVnmc08Zn42tKUo1KqBTlufn5lqh0lTeEKdwNhlDeyHhMFwRmVldI_9TvJJLsUlhqu754mvng2IITIu93Zy6iZ3jMNobGpd47uhWEykI7L-g-4e8rYm_aKlVW0622ioPi0fuUW2QUri2vVvM_qPPFZS4k7S-Lv_VdS3btQfBS6HV6lknU-pz3VjEQA1BxWm13DQwi1-cnc-MumoZFYXot7hNK4XK6Z3UNSZiP-SbecHMX-YKTPxz1FnnlbQohQMYdHSXrnBt557hJPY5ckxXFasCAtxTlC2fhVN0KuILA0n8UjWenFZ8tbBHi2fd1uP1BTedSCfHROT9fDtoIDu2vSFL4GcI4xU9NjLw_o0CYzML4P3PKTGAPpWtaFXt3XNnwRjI-tYYRItIcZdKY_eTMFa5bl6PCQOFR1k5D_Rf0Q22P76HJXNrfa5Sr4cjPVgUMgdiekej3qjMeT4QLgaQSC7zEK6FPrS8AFgq7s-6N7q5cQuWKpePKRTNZc_HdcJohwmJFsd_e69CxSHuI1FKHXttywXXM1El9j0EyrXfi-HcyXAfUiENYzN3AxgxaD_WM8wpErraUWYCfIEWdtE4EHn8hbxZCU2N3Ea3LhOykv2o4r8N5kf6is4zPgE5TaoFovALKx-l1pq2KPUYL89YotKMaGOpLy0?></g></svg>